ISO-10303-21;
HEADER;
FILE_DESCRIPTION (( 'STEP AP214' ),
    '1' );
FILE_NAME ('EN AW-6061-T6 Winkelstahl.STEP',
    '2026-09-13T18:26:35',
    ( '' ),
    ( '' ),
    'SwSTEP 2.0',
    'SolidWorks 2025',
    '' );
FILE_SCHEMA (( 'AUTOMOTIVE_DESIGN' ));
ENDSEC;

DATA;
#1 = EDGE_CURVE ( 'NONE', #423, #226, #354, .T. ) ;
#2 =( GEOMETRIC_REPRESENTATION_CONTEXT ( 3 ) GLOBAL_UNCERTAINTY_ASSIGNED_CONTEXT ( ( #168 ) ) GLOBAL_UNIT_ASSIGNED_CONTEXT ( ( #133, #338, #336 ) ) REPRESENTATION_CONTEXT ( 'NONE', 'WORKASPACE' ) );
#3 = DIRECTION ( 'NONE',  ( -1.000000000000000000, -1.119176436114070318E-16, 0.000000000000000000 ) ) ;
#4 = AXIS2_PLACEMENT_3D ( 'NONE', #365, #324, #88 ) ;
#5 = VECTOR ( 'NONE', #244, 1000.000000000000000 ) ;
#6 = DIRECTION ( 'NONE',  ( -1.000000000000000000, -1.119176436114070564E-16, 0.000000000000000000 ) ) ;
#7 = CARTESIAN_POINT ( 'NONE',  ( 9.389626173925006416E-16, 80.00000000000000000, 40.00000000000000000 ) ) ;
#8 = LINE ( 'NONE', #108, #5 ) ;
#9 = EDGE_CURVE ( 'NONE', #325, #154, #162, .T. ) ;
#10 = ORIENTED_EDGE ( 'NONE', *, *, #428, .F. ) ;
#11 = ADVANCED_FACE ( 'NONE', ( #359 ), #319, .F. ) ;
#12 = VERTEX_POINT ( 'NONE', #267 ) ;
#13 = DIRECTION ( 'NONE',  ( -1.000000000000000000, -1.119176436114070564E-16, 0.000000000000000000 ) ) ;
#14 = VERTEX_POINT ( 'NONE', #79 ) ;
#15 = LINE ( 'NONE', #335, #348 ) ;
#16 = ORIENTED_EDGE ( 'NONE', *, *, #211, .T. ) ;
#17 = AXIS2_PLACEMENT_3D ( 'NONE', #424, #201, #329 ) ;
#18 = EDGE_CURVE ( 'NONE', #183, #269, #405, .T. ) ;
#19 = FACE_OUTER_BOUND ( 'NONE', #388, .T. ) ;
#20 = ORIENTED_EDGE ( 'NONE', *, *, #412, .F. ) ;
#21 = DIRECTION ( 'NONE',  ( -1.119176436114070318E-16, 1.000000000000000000, 0.000000000000000000 ) ) ;
#22 = ORIENTED_EDGE ( 'NONE', *, *, #196, .T. ) ;
#23 = CARTESIAN_POINT ( 'NONE',  ( -6.183449809530233292E-15, 36.25000000000000711, 1.071565949253934913E-15 ) ) ;
#24 = ORIENTED_EDGE ( 'NONE', *, *, #339, .T. ) ;
#25 = AXIS2_PLACEMENT_3D ( 'NONE', #358, #374, #66 ) ;
#26 = FACE_OUTER_BOUND ( 'NONE', #372, .T. ) ;
#27 = ORIENTED_EDGE ( 'NONE', *, *, #9, .T. ) ;
#28 = ADVANCED_FACE ( 'NONE', ( #376, #277 ), #312, .F. ) ;
#29 = CYLINDRICAL_SURFACE ( 'NONE', #92, 8.750000000000000000 ) ;
#30 = ORIENTED_EDGE ( 'NONE', *, *, #245, .T. ) ;
#31 = DIRECTION ( 'NONE',  ( -1.119176436114070318E-16, 1.000000000000000000, 0.000000000000000000 ) ) ;
#32 = LINE ( 'NONE', #303, #135 ) ;
#33 = DIRECTION ( 'NONE',  ( -0.000000000000000000, -0.000000000000000000, -1.000000000000000000 ) ) ;
#34 = PRODUCT_DEFINITION ( 'UNKNOWN', '', #307, #334 ) ;
#35 = AXIS2_PLACEMENT_3D ( 'NONE', #204, #125, #13 ) ;
#36 = CARTESIAN_POINT ( 'NONE',  ( 9.389626173925006416E-16, 80.00000000000000000, -40.00000000000000000 ) ) ;
#37 = VECTOR ( 'NONE', #360, 1000.000000000000000 ) ;
#38 = AXIS2_PLACEMENT_3D ( 'NONE', #409, #344, #313 ) ;
#39 = FACE_OUTER_BOUND ( 'NONE', #146, .T. ) ;
#40 = LINE ( 'NONE', #345, #217 ) ;
#41 = CIRCLE ( 'NONE', #310, 8.750000000000000000 ) ;
#42 = VECTOR ( 'NONE', #429, 1000.000000000000000 ) ;
#43 = EDGE_CURVE ( 'NONE', #183, #195, #40, .T. ) ;
#44 = ORIENTED_EDGE ( 'NONE', *, *, #196, .F. ) ;
#45 = CARTESIAN_POINT ( 'NONE',  ( 80.00000000000000000, 0.000000000000000000, 40.00000000000000000 ) ) ;
#46 = ORIENTED_EDGE ( 'NONE', *, *, #215, .F. ) ;
#47 = PLANE ( 'NONE',  #102 ) ;
#48 = CARTESIAN_POINT ( 'NONE',  ( 80.00000000000000000, 0.000000000000000000, -40.00000000000000000 ) ) ;
#49 = EDGE_CURVE ( 'NONE', #193, #98, #177, .T. ) ;
#50 = DIRECTION ( 'NONE',  ( -1.119176436114070318E-16, 1.000000000000000000, 0.000000000000000000 ) ) ;
#51 = VERTEX_POINT ( 'NONE', #140 ) ;
#52 = CARTESIAN_POINT ( 'NONE',  ( 7.999999999999994671, 18.00000000000006395, 40.00000000000000000 ) ) ;
#53 = EDGE_LOOP ( 'NONE', ( #84, #396, #58, #82, #323, #301, #357 ) ) ;
#54 = AXIS2_PLACEMENT_3D ( 'NONE', #240, #134, #436 ) ;
#55 = LINE ( 'NONE', #223, #76 ) ;
#56 = EDGE_LOOP ( 'NONE', ( #254, #109, #425, #233 ) ) ;
#57 = DIRECTION ( 'NONE',  ( -1.000000000000000000, 1.119176436114070318E-16, 0.000000000000000000 ) ) ;
#58 = ORIENTED_EDGE ( 'NONE', *, *, #143, .F. ) ;
#59 = DIRECTION ( 'NONE',  ( 1.000000000000000000, -1.119176436114070318E-16, -0.000000000000000000 ) ) ;
#60 = ORIENTED_EDGE ( 'NONE', *, *, #73, .T. ) ;
#61 = CIRCLE ( 'NONE', #157, 8.750000000000000000 ) ;
#62 = DIRECTION ( 'NONE',  ( 1.982541115402065356E-16, 1.000000000000000000, 0.000000000000000000 ) ) ;
#63 = AXIS2_PLACEMENT_3D ( 'NONE', #7, #181, #70 ) ;
#64 = FACE_OUTER_BOUND ( 'NONE', #366, .T. ) ;
#65 = VERTEX_POINT ( 'NONE', #214 ) ;
#66 = DIRECTION ( 'NONE',  ( -1.000000000000000000, -1.119176436114070564E-16, 0.000000000000000000 ) ) ;
#67 = EDGE_CURVE ( 'NONE', #330, #333, #416, .T. ) ;
#68 = SHAPE_DEFINITION_REPRESENTATION ( #251, #402 ) ;
#69 = DIRECTION ( 'NONE',  ( -1.173703271740625710E-17, -1.000000000000000000, 0.000000000000000000 ) ) ;
#70 = DIRECTION ( 'NONE',  ( 1.173703271740625710E-17, 1.000000000000000000, 0.000000000000000000 ) ) ;
#71 = DIRECTION ( 'NONE',  ( -1.173703271740625710E-17, -1.000000000000000000, 0.000000000000000000 ) ) ;
#72 = LINE ( 'NONE', #141, #103 ) ;
#73 = EDGE_CURVE ( 'NONE', #98, #325, #72, .T. ) ;
#74 = CARTESIAN_POINT ( 'NONE',  ( 80.00000000000000000, 8.000000000000000000, -40.00000000000000000 ) ) ;
#75 = VECTOR ( 'NONE', #371, 1000.000000000000000 ) ;
#76 = VECTOR ( 'NONE', #433, 1000.000000000000000 ) ;
#77 = AXIS2_PLACEMENT_3D ( 'NONE', #299, #432, #128 ) ;
#78 = EDGE_CURVE ( 'NONE', #65, #51, #377, .T. ) ;
#79 = CARTESIAN_POINT ( 'NONE',  ( 18.00000000000006395, 7.999999999999992895, -40.00000000000000000 ) ) ;
#80 = SURFACE_STYLE_FILL_AREA ( #384 ) ;
#81 = DIRECTION ( 'NONE',  ( -1.000000000000000000, -1.982541115402065356E-16, 0.000000000000000000 ) ) ;
#82 = ORIENTED_EDGE ( 'NONE', *, *, #211, .F. ) ;
#83 = SURFACE_STYLE_USAGE ( .BOTH. , #387 ) ;
#84 = ORIENTED_EDGE ( 'NONE', *, *, #78, .F. ) ;
#85 = DIRECTION ( 'NONE',  ( -1.000000000000000000, 0.000000000000000000, 0.000000000000000000 ) ) ;
#86 = EDGE_LOOP ( 'NONE', ( #16, #94, #283, #284 ) ) ;
#87 = EDGE_CURVE ( 'NONE', #333, #330, #328, .T. ) ;
#88 = DIRECTION ( 'NONE',  ( 0.000000000000000000, 0.000000000000000000, 1.000000000000000000 ) ) ;
#89 = ORIENTED_EDGE ( 'NONE', *, *, #250, .T. ) ;
#90 = CARTESIAN_POINT ( 'NONE',  ( 80.00000000000000000, 8.000000000000000000, -40.00000000000000000 ) ) ;
#91 = ORIENTED_EDGE ( 'NONE', *, *, #104, .T. ) ;
#92 = AXIS2_PLACEMENT_3D ( 'NONE', #97, #117, #259 ) ;
#93 = DIRECTION ( 'NONE',  ( -1.000000000000000000, -1.982541115402065356E-16, 0.000000000000000000 ) ) ;
#94 = ORIENTED_EDGE ( 'NONE', *, *, #219, .F. ) ;
#95 = CARTESIAN_POINT ( 'NONE',  ( 17.99999999999999645, 17.99999999999999289, 40.00000000000000000 ) ) ;
#96 = PRODUCT ( 'EN AW-6061-T6 Winkelstahl', 'EN AW-6061-T6 Winkelstahl', '', ( #207 ) ) ;
#97 = CARTESIAN_POINT ( 'NONE',  ( -5.204170427930421283E-15, 45.00000000000000711, 0.000000000000000000 ) ) ;
#98 = VERTEX_POINT ( 'NONE', #343 ) ;
#99 = EDGE_CURVE ( 'NONE', #147, #297, #142, .T. ) ;
#100 = FACE_OUTER_BOUND ( 'NONE', #288, .T. ) ;
#101 = ADVANCED_FACE ( 'NONE', ( #39 ), #179, .F. ) ;
#102 = AXIS2_PLACEMENT_3D ( 'NONE', #52, #57, #203 ) ;
#103 = VECTOR ( 'NONE', #242, 1000.000000000000000 ) ;
#104 = EDGE_CURVE ( 'NONE', #297, #423, #8, .T. ) ;
#105 = CARTESIAN_POINT ( 'NONE',  ( 18.00000000000006395, 7.999999999999992895, 40.00000000000000000 ) ) ;
#106 = DIRECTION ( 'NONE',  ( 1.000000000000000000, -1.119176436114070318E-16, 0.000000000000000000 ) ) ;
#107 = DIRECTION ( 'NONE',  ( 1.119176436114070564E-16, 1.000000000000000000, 0.000000000000000000 ) ) ;
#108 = CARTESIAN_POINT ( 'NONE',  ( 80.00000000000000000, 0.000000000000000000, 40.00000000000000000 ) ) ;
#109 = ORIENTED_EDGE ( 'NONE', *, *, #9, .F. ) ;
#110 = EDGE_CURVE ( 'NONE', #226, #14, #379, .T. ) ;
#111 = VECTOR ( 'NONE', #401, 1000.000000000000000 ) ;
#112 = AXIS2_PLACEMENT_3D ( 'NONE', #322, #363, #155 ) ;
#113 = CLOSED_SHELL ( 'NONE', ( #11, #355, #28, #346, #314, #210, #163, #178, #367, #101, #149, #232, #375 ) ) ;
#114 = DIRECTION ( 'NONE',  ( -1.000000000000000000, -1.119176436114070318E-16, 0.000000000000000000 ) ) ;
#115 = CARTESIAN_POINT ( 'NONE',  ( 17.99999999999999645, 17.99999999999999289, -40.00000000000000000 ) ) ;
#116 = ORIENTED_EDGE ( 'NONE', *, *, #249, .F. ) ;
#117 = DIRECTION ( 'NONE',  ( 1.000000000000000000, -1.119176436114070318E-16, -0.000000000000000000 ) ) ;
#118 = ORIENTED_EDGE ( 'NONE', *, *, #110, .T. ) ;
#119 = DIRECTION ( 'NONE',  ( -1.119176436114070318E-16, 1.000000000000000000, -0.000000000000000000 ) ) ;
#120 = DIRECTION ( 'NONE',  ( 0.000000000000000000, 1.000000000000000000, 0.000000000000000000 ) ) ;
#121 = CARTESIAN_POINT ( 'NONE',  ( -4.224891046330609274E-15, 53.75000000000000711, 0.000000000000000000 ) ) ;
#122 = VERTEX_POINT ( 'NONE', #137 ) ;
#123 = DIRECTION ( 'NONE',  ( 1.000000000000000000, 1.119176436114070318E-16, 0.000000000000000000 ) ) ;
#124 = VERTEX_POINT ( 'NONE', #273 ) ;
#125 = DIRECTION ( 'NONE',  ( -1.119176436114070318E-16, 1.000000000000000000, -0.000000000000000000 ) ) ;
#126 = ORIENTED_EDGE ( 'NONE', *, *, #263, .T. ) ;
#127 = DIRECTION ( 'NONE',  ( 1.000000000000000000, 0.000000000000000000, 0.000000000000000000 ) ) ;
#128 = DIRECTION ( 'NONE',  ( 1.119176436114070564E-16, 1.000000000000000000, 0.000000000000000000 ) ) ;
#129 = EDGE_CURVE ( 'NONE', #193, #14, #406, .T. ) ;
#130 = LINE ( 'NONE', #296, #42 ) ;
#131 = ORIENTED_EDGE ( 'NONE', *, *, #279, .T. ) ;
#132 = CARTESIAN_POINT ( 'NONE',  ( 8.000000000000001776, 80.00000000000000000, 40.00000000000000000 ) ) ;
#133 =( LENGTH_UNIT ( ) NAMED_UNIT ( * ) SI_UNIT ( .MILLI., .METRE. ) );
#134 = DIRECTION ( 'NONE',  ( 0.000000000000000000, 0.000000000000000000, 1.000000000000000000 ) ) ;
#135 = VECTOR ( 'NONE', #114, 1000.000000000000000 ) ;
#136 = EDGE_CURVE ( 'NONE', #51, #423, #342, .T. ) ;
#137 = CARTESIAN_POINT ( 'NONE',  ( 8.000000000000000000, 53.75000000000000711, 0.000000000000000000 ) ) ;
#138 = AXIS2_PLACEMENT_3D ( 'NONE', #356, #50, #93 ) ;
#139 = VECTOR ( 'NONE', #209, 1000.000000000000000 ) ;
#140 = CARTESIAN_POINT ( 'NONE',  ( 0.000000000000000000, 0.000000000000000000, -40.00000000000000000 ) ) ;
#141 = CARTESIAN_POINT ( 'NONE',  ( 7.999999999999994671, 18.00000000000006395, 40.00000000000000000 ) ) ;
#142 = LINE ( 'NONE', #278, #311 ) ;
#143 = EDGE_CURVE ( 'NONE', #124, #154, #266, .T. ) ;
#144 = STYLED_ITEM ( 'NONE', ( #174 ), #414 ) ;
#145 = EDGE_CURVE ( 'NONE', #269, #361, #15, .T. ) ;
#146 = EDGE_LOOP ( 'NONE', ( #198, #413, #24, #286, #187, #60, #156 ) ) ;
#147 = VERTEX_POINT ( 'NONE', #257 ) ;
#148 = PLANE ( 'NONE',  #17 ) ;
#149 = ADVANCED_FACE ( 'NONE', ( #261 ), #422, .T. ) ;
#150 = ORIENTED_EDGE ( 'NONE', *, *, #185, .F. ) ;
#151 = DIRECTION ( 'NONE',  ( 1.119176436114070318E-16, -1.000000000000000000, 0.000000000000000000 ) ) ;
#152 = ORIENTED_EDGE ( 'NONE', *, *, #182, .T. ) ;
#153 = CARTESIAN_POINT ( 'NONE',  ( 36.25000000000000711, 7.999999999999994671, 0.000000000000000000 ) ) ;
#154 = VERTEX_POINT ( 'NONE', #298 ) ;
#155 = DIRECTION ( 'NONE',  ( -1.000000000000000000, 0.000000000000000000, 0.000000000000000000 ) ) ;
#156 = ORIENTED_EDGE ( 'NONE', *, *, #215, .T. ) ;
#157 = AXIS2_PLACEMENT_3D ( 'NONE', #197, #368, #62 ) ;
#158 = VECTOR ( 'NONE', #71, 1000.000000000000000 ) ;
#159 = LINE ( 'NONE', #220, #37 ) ;
#160 = ORIENTED_EDGE ( 'NONE', *, *, #279, .F. ) ;
#161 = DIRECTION ( 'NONE',  ( 1.982541115402065356E-16, 1.000000000000000000, 0.000000000000000000 ) ) ;
#162 = LINE ( 'NONE', #258, #417 ) ;
#163 = ADVANCED_FACE ( 'NONE', ( #398 ), #253, .F. ) ;
#164 = LINE ( 'NONE', #237, #75 ) ;
#165 = ORIENTED_EDGE ( 'NONE', *, *, #263, .F. ) ;
#166 = DIRECTION ( 'NONE',  ( -1.000000000000000000, 0.000000000000000000, 0.000000000000000000 ) ) ;
#167 = CARTESIAN_POINT ( 'NONE',  ( 0.000000000000000000, 0.000000000000000000, 40.00000000000000000 ) ) ;
#168 = UNCERTAINTY_MEASURE_WITH_UNIT (LENGTH_MEASURE( 1.000000000000000082E-05 ), #133, 'distance_accuracy_value', 'NONE');
#169 = CARTESIAN_POINT ( 'NONE',  ( 45.00000000000000711, -3.469446951953614189E-15, 0.000000000000000000 ) ) ;
#170 = APPLICATION_PROTOCOL_DEFINITION ( 'draft international standard', 'automotive_design', 1998, #337 ) ;
#171 =( LENGTH_UNIT ( ) NAMED_UNIT ( * ) SI_UNIT ( .MILLI., .METRE. ) );
#172 = EDGE_CURVE ( 'NONE', #122, #380, #61, .T. ) ;
#173 = MECHANICAL_DESIGN_GEOMETRIC_PRESENTATION_REPRESENTATION (  '', ( #144 ), #397 ) ;
#174 = PRESENTATION_STYLE_ASSIGNMENT (( #83 ) ) ;
#175 = DIRECTION ( 'NONE',  ( -0.000000000000000000, -0.000000000000000000, -1.000000000000000000 ) ) ;
#176 = CIRCLE ( 'NONE', #216, 8.750000000000000000 ) ;
#177 = CIRCLE ( 'NONE', #295, 9.999999999999998224 ) ;
#178 = ADVANCED_FACE ( 'NONE', ( #192, #302 ), #47, .F. ) ;
#179 = PLANE ( 'NONE',  #38 ) ;
#180 = PRODUCT_RELATED_PRODUCT_CATEGORY ( 'part', '', ( #96 ) ) ;
#181 = DIRECTION ( 'NONE',  ( 1.000000000000000000, -1.173703271740625710E-17, 0.000000000000000000 ) ) ;
#182 = EDGE_CURVE ( 'NONE', #147, #51, #331, .T. ) ;
#183 = VERTEX_POINT ( 'NONE', #270 ) ;
#184 = ORIENTED_EDGE ( 'NONE', *, *, #407, .T. ) ;
#185 = EDGE_CURVE ( 'NONE', #380, #122, #199, .T. ) ;
#186 = FACE_OUTER_BOUND ( 'NONE', #327, .T. ) ;
#187 = ORIENTED_EDGE ( 'NONE', *, *, #49, .T. ) ;
#188 = PLANE ( 'NONE',  #415 ) ;
#189 = DIRECTION ( 'NONE',  ( -0.000000000000000000, -0.000000000000000000, -1.000000000000000000 ) ) ;
#190 = PLANE ( 'NONE',  #381 ) ;
#191 = ORIENTED_EDGE ( 'NONE', *, *, #67, .T. ) ;
#192 = FACE_BOUND ( 'NONE', #224, .T. ) ;
#193 = VERTEX_POINT ( 'NONE', #353 ) ;
#194 = LINE ( 'NONE', #395, #347 ) ;
#195 = VERTEX_POINT ( 'NONE', #385 ) ;
#196 = EDGE_CURVE ( 'NONE', #361, #195, #41, .T. ) ;
#197 = CARTESIAN_POINT ( 'NONE',  ( 7.999999999999998224, 45.00000000000000711, 0.000000000000000000 ) ) ;
#198 = ORIENTED_EDGE ( 'NONE', *, *, #428, .T. ) ;
#199 = CIRCLE ( 'NONE', #282, 8.750000000000000000 ) ;
#200 = VECTOR ( 'NONE', #3, 1000.000000000000000 ) ;
#201 = DIRECTION ( 'NONE',  ( 0.000000000000000000, -1.000000000000000000, 0.000000000000000000 ) ) ;
#202 = ORIENTED_EDGE ( 'NONE', *, *, #1, .T. ) ;
#203 = DIRECTION ( 'NONE',  ( -1.119176436114070318E-16, -1.000000000000000000, 0.000000000000000000 ) ) ;
#204 = CARTESIAN_POINT ( 'NONE',  ( 45.00000000000000711, -3.469446951953614189E-15, 0.000000000000000000 ) ) ;
#205 = ORIENTED_EDGE ( 'NONE', *, *, #172, .F. ) ;
#206 = LINE ( 'NONE', #225, #294 ) ;
#207 = PRODUCT_CONTEXT ( 'NONE', #308, 'mechanical' ) ;
#208 = CARTESIAN_POINT ( 'NONE',  ( 80.00000000000000000, 0.000000000000000000, -40.00000000000000000 ) ) ;
#209 = DIRECTION ( 'NONE',  ( -0.000000000000000000, -0.000000000000000000, -1.000000000000000000 ) ) ;
#210 = ADVANCED_FACE ( 'NONE', ( #229, #26 ), #188, .F. ) ;
#211 = EDGE_CURVE ( 'NONE', #14, #124, #382, .T. ) ;
#212 = CARTESIAN_POINT ( 'NONE',  ( -5.204170427930421283E-15, 45.00000000000000711, 0.000000000000000000 ) ) ;
#213 = DIRECTION ( 'NONE',  ( -1.000000000000000000, 0.000000000000000000, 0.000000000000000000 ) ) ;
#214 = CARTESIAN_POINT ( 'NONE',  ( 9.389626173925006416E-16, 80.00000000000000000, -40.00000000000000000 ) ) ;
#215 = EDGE_CURVE ( 'NONE', #325, #12, #435, .T. ) ;
#216 = AXIS2_PLACEMENT_3D ( 'NONE', #169, #21, #364 ) ;
#217 = VECTOR ( 'NONE', #243, 1000.000000000000000 ) ;
#218 = CARTESIAN_POINT ( 'NONE',  ( 45.00000000000000711, -3.469446951953614189E-15, 0.000000000000000000 ) ) ;
#219 = EDGE_CURVE ( 'NONE', #98, #124, #206, .T. ) ;
#220 = CARTESIAN_POINT ( 'NONE',  ( 8.000000000000001776, 80.00000000000000000, -40.00000000000000000 ) ) ;
#221 = CARTESIAN_POINT ( 'NONE',  ( 45.00000000000000711, 7.999999999999996447, 0.000000000000000000 ) ) ;
#222 = ORIENTED_EDGE ( 'NONE', *, *, #182, .F. ) ;
#223 = CARTESIAN_POINT ( 'NONE',  ( 80.00000000000000000, 8.000000000000000000, 40.00000000000000000 ) ) ;
#224 = EDGE_LOOP ( 'NONE', ( #205, #150 ) ) ;
#225 = CARTESIAN_POINT ( 'NONE',  ( 7.999999999999996447, 17.99999999999999289, 40.00000000000000000 ) ) ;
#226 = VERTEX_POINT ( 'NONE', #90 ) ;
#227 = CARTESIAN_POINT ( 'NONE',  ( 7.999999999999996447, 36.25000000000000711, 1.071565949253934913E-15 ) ) ;
#228 = ORIENTED_EDGE ( 'NONE', *, *, #87, .F. ) ;
#229 = FACE_BOUND ( 'NONE', #352, .T. ) ;
#230 = ORIENTED_EDGE ( 'NONE', *, *, #43, .T. ) ;
#231 = PLANE ( 'NONE',  #4 ) ;
#232 = ADVANCED_FACE ( 'NONE', ( #100 ), #239, .F. ) ;
#233 = ORIENTED_EDGE ( 'NONE', *, *, #219, .T. ) ;
#234 = CARTESIAN_POINT ( 'NONE',  ( 0.000000000000000000, 0.000000000000000000, -40.00000000000000000 ) ) ;
#235 = AXIS2_PLACEMENT_3D ( 'NONE', #115, #393, #166 ) ;
#236 = AXIS2_PLACEMENT_3D ( 'NONE', #218, #378, #6 ) ;
#237 = CARTESIAN_POINT ( 'NONE',  ( 9.389626173925006416E-16, 80.00000000000000000, 40.00000000000000000 ) ) ;
#238 = EDGE_LOOP ( 'NONE', ( #30, #280 ) ) ;
#239 = CYLINDRICAL_SURFACE ( 'NONE', #25, 8.750000000000000000 ) ;
#240 = CARTESIAN_POINT ( 'NONE',  ( 0.000000000000000000, 0.000000000000000000, 0.000000000000000000 ) ) ;
#241 = DIRECTION ( 'NONE',  ( 1.000000000000000000, -1.119176436114070318E-16, 0.000000000000000000 ) ) ;
#242 = DIRECTION ( 'NONE',  ( 1.119176436114070318E-16, 1.000000000000000000, 0.000000000000000000 ) ) ;
#243 = DIRECTION ( 'NONE',  ( -1.119176436114070318E-16, 1.000000000000000000, -0.000000000000000000 ) ) ;
#244 = DIRECTION ( 'NONE',  ( -0.000000000000000000, -0.000000000000000000, -1.000000000000000000 ) ) ;
#245 = EDGE_CURVE ( 'NONE', #269, #183, #176, .T. ) ;
#246 = EDGE_LOOP ( 'NONE', ( #160, #419, #126, #430 ) ) ;
#247 = VECTOR ( 'NONE', #33, 1000.000000000000000 ) ;
#248 = VECTOR ( 'NONE', #326, 1000.000000000000000 ) ;
#249 = EDGE_CURVE ( 'NONE', #260, #226, #55, .T. ) ;
#250 = EDGE_CURVE ( 'NONE', #154, #65, #159, .T. ) ;
#251 = PRODUCT_DEFINITION_SHAPE ( 'NONE', 'NONE',  #34 ) ;
#252 = FILL_AREA_STYLE_COLOUR ( '', #340 ) ;
#253 = CYLINDRICAL_SURFACE ( 'NONE', #369, 9.999999999999998224 ) ;
#254 = ORIENTED_EDGE ( 'NONE', *, *, #143, .T. ) ;
#255 = LINE ( 'NONE', #306, #271 ) ;
#256 = ORIENTED_EDGE ( 'NONE', *, *, #145, .T. ) ;
#257 = CARTESIAN_POINT ( 'NONE',  ( 0.000000000000000000, 0.000000000000000000, 40.00000000000000000 ) ) ;
#258 = CARTESIAN_POINT ( 'NONE',  ( 8.000000000000001776, 80.00000000000000000, 40.00000000000000000 ) ) ;
#259 = DIRECTION ( 'NONE',  ( 1.119176436114070564E-16, 1.000000000000000000, 0.000000000000000000 ) ) ;
#260 = VERTEX_POINT ( 'NONE', #399 ) ;
#261 = FACE_OUTER_BOUND ( 'NONE', #53, .T. ) ;
#262 = ORIENTED_EDGE ( 'NONE', *, *, #104, .F. ) ;
#263 = EDGE_CURVE ( 'NONE', #330, #122, #194, .T. ) ;
#264 = LINE ( 'NONE', #391, #404 ) ;
#265 = ORIENTED_EDGE ( 'NONE', *, *, #407, .F. ) ;
#266 = LINE ( 'NONE', #291, #248 ) ;
#267 = CARTESIAN_POINT ( 'NONE',  ( 9.389626173925006416E-16, 80.00000000000000000, 40.00000000000000000 ) ) ;
#268 = CARTESIAN_POINT ( 'NONE',  ( 36.25000000000000711, -4.448726333553426198E-15, 0.000000000000000000 ) ) ;
#269 = VERTEX_POINT ( 'NONE', #268 ) ;
#270 = CARTESIAN_POINT ( 'NONE',  ( 53.75000000000000711, -2.490167570353801786E-15, 1.071565949253934913E-15 ) ) ;
#271 = VECTOR ( 'NONE', #69, 1000.000000000000000 ) ;
#272 = UNCERTAINTY_MEASURE_WITH_UNIT (LENGTH_MEASURE( 1.000000000000000082E-05 ), #171, 'distance_accuracy_value', 'NONE');
#273 = CARTESIAN_POINT ( 'NONE',  ( 7.999999999999996447, 17.99999999999999289, -40.00000000000000000 ) ) ;
#274 = CIRCLE ( 'NONE', #138, 8.750000000000000000 ) ;
#275 = AXIS2_PLACEMENT_3D ( 'NONE', #276, #106, #408 ) ;
#276 = CARTESIAN_POINT ( 'NONE',  ( -5.204170427930421283E-15, 45.00000000000000711, 0.000000000000000000 ) ) ;
#277 = FACE_OUTER_BOUND ( 'NONE', #350, .T. ) ;
#278 = CARTESIAN_POINT ( 'NONE',  ( 0.000000000000000000, 0.000000000000000000, 40.00000000000000000 ) ) ;
#279 = EDGE_CURVE ( 'NONE', #333, #380, #264, .T. ) ;
#280 = ORIENTED_EDGE ( 'NONE', *, *, #18, .T. ) ;
#281 = EDGE_LOOP ( 'NONE', ( #228, #131, #411, #165 ) ) ;
#282 = AXIS2_PLACEMENT_3D ( 'NONE', #318, #426, #161 ) ;
#283 = ORIENTED_EDGE ( 'NONE', *, *, #49, .F. ) ;
#284 = ORIENTED_EDGE ( 'NONE', *, *, #129, .T. ) ;
#285 = CYLINDRICAL_SURFACE ( 'NONE', #35, 8.750000000000000000 ) ;
#286 = ORIENTED_EDGE ( 'NONE', *, *, #412, .T. ) ;
#287 = DIRECTION ( 'NONE',  ( -0.000000000000000000, -0.000000000000000000, -1.000000000000000000 ) ) ;
#288 = EDGE_LOOP ( 'NONE', ( #317, #315, #256, #22 ) ) ;
#289 = DIRECTION ( 'NONE',  ( 0.000000000000000000, -0.000000000000000000, 1.000000000000000000 ) ) ;
#290 = ORIENTED_EDGE ( 'NONE', *, *, #293, .T. ) ;
#291 = CARTESIAN_POINT ( 'NONE',  ( 7.999999999999994671, 18.00000000000006395, -40.00000000000000000 ) ) ;
#292 = ORIENTED_EDGE ( 'NONE', *, *, #99, .F. ) ;
#293 = EDGE_CURVE ( 'NONE', #195, #361, #274, .T. ) ;
#294 = VECTOR ( 'NONE', #287, 1000.000000000000000 ) ;
#295 = AXIS2_PLACEMENT_3D ( 'NONE', #309, #175, #213 ) ;
#296 = CARTESIAN_POINT ( 'NONE',  ( 80.00000000000000000, 0.000000000000000000, 40.00000000000000000 ) ) ;
#297 = VERTEX_POINT ( 'NONE', #45 ) ;
#298 = CARTESIAN_POINT ( 'NONE',  ( 8.000000000000001776, 80.00000000000000000, -40.00000000000000000 ) ) ;
#299 = CARTESIAN_POINT ( 'NONE',  ( -5.204170427930421283E-15, 45.00000000000000711, 0.000000000000000000 ) ) ;
#300 = FACE_OUTER_BOUND ( 'NONE', #394, .T. ) ;
#301 = ORIENTED_EDGE ( 'NONE', *, *, #1, .F. ) ;
#302 = FACE_OUTER_BOUND ( 'NONE', #56, .T. ) ;
#303 = CARTESIAN_POINT ( 'NONE',  ( 80.00000000000000000, 8.000000000000000000, 40.00000000000000000 ) ) ;
#304 = CARTESIAN_POINT ( 'NONE',  ( 0.000000000000000000, 0.000000000000000000, 40.00000000000000000 ) ) ;
#305 =( NAMED_UNIT ( * ) PLANE_ANGLE_UNIT ( ) SI_UNIT ( $, .RADIAN. ) );
#306 = CARTESIAN_POINT ( 'NONE',  ( 9.389626173925006416E-16, 80.00000000000000000, 40.00000000000000000 ) ) ;
#307 = PRODUCT_DEFINITION_FORMATION_WITH_SPECIFIED_SOURCE ( 'ANY', '', #96, .NOT_KNOWN. ) ;
#308 = APPLICATION_CONTEXT ( 'automotive_design' ) ;
#309 = CARTESIAN_POINT ( 'NONE',  ( 17.99999999999999645, 17.99999999999999289, 40.00000000000000000 ) ) ;
#310 = AXIS2_PLACEMENT_3D ( 'NONE', #221, #31, #81 ) ;
#311 = VECTOR ( 'NONE', #410, 1000.000000000000000 ) ;
#312 = PLANE ( 'NONE',  #63 ) ;
#313 = DIRECTION ( 'NONE',  ( -1.000000000000000000, 0.000000000000000000, 0.000000000000000000 ) ) ;
#314 = ADVANCED_FACE ( 'NONE', ( #64 ), #231, .F. ) ;
#315 = ORIENTED_EDGE ( 'NONE', *, *, #245, .F. ) ;
#316 = FACE_BOUND ( 'NONE', #238, .T. ) ;
#317 = ORIENTED_EDGE ( 'NONE', *, *, #43, .F. ) ;
#318 = CARTESIAN_POINT ( 'NONE',  ( 7.999999999999998224, 45.00000000000000711, 0.000000000000000000 ) ) ;
#319 = CYLINDRICAL_SURFACE ( 'NONE', #77, 8.750000000000000000 ) ;
#320 = DIRECTION ( 'NONE',  ( 0.000000000000000000, 1.000000000000000000, 0.000000000000000000 ) ) ;
#321 = ORIENTED_EDGE ( 'NONE', *, *, #339, .F. ) ;
#322 = CARTESIAN_POINT ( 'NONE',  ( 17.99999999999999645, 17.99999999999999289, -40.00000000000000000 ) ) ;
#323 = ORIENTED_EDGE ( 'NONE', *, *, #110, .F. ) ;
#324 = DIRECTION ( 'NONE',  ( -1.000000000000000000, 0.000000000000000000, 0.000000000000000000 ) ) ;
#325 = VERTEX_POINT ( 'NONE', #420 ) ;
#326 = DIRECTION ( 'NONE',  ( 1.119176436114070318E-16, 1.000000000000000000, 0.000000000000000000 ) ) ;
#327 = EDGE_LOOP ( 'NONE', ( #349, #262, #292, #152 ) ) ;
#328 = CIRCLE ( 'NONE', #370, 8.750000000000000000 ) ;
#329 = DIRECTION ( 'NONE',  ( 0.000000000000000000, -0.000000000000000000, -1.000000000000000000 ) ) ;
#330 = VERTEX_POINT ( 'NONE', #121 ) ;
#331 = LINE ( 'NONE', #304, #247 ) ;
#332 = FACE_OUTER_BOUND ( 'NONE', #246, .T. ) ;
#333 = VERTEX_POINT ( 'NONE', #23 ) ;
#334 = PRODUCT_DEFINITION_CONTEXT ( 'detailed design', #337, 'design' ) ;
#335 = CARTESIAN_POINT ( 'NONE',  ( 36.25000000000000711, -4.448726333553426198E-15, 0.000000000000000000 ) ) ;
#336 =( NAMED_UNIT ( * ) SI_UNIT ( $, .STERADIAN. ) SOLID_ANGLE_UNIT ( ) );
#337 = APPLICATION_CONTEXT ( 'automotive_design' ) ;
#338 =( NAMED_UNIT ( * ) PLANE_ANGLE_UNIT ( ) SI_UNIT ( $, .RADIAN. ) );
#339 = EDGE_CURVE ( 'NONE', #297, #260, #130, .T. ) ;
#340 = COLOUR_RGB ( '',0.7921568627450980005, 0.8196078431372548767, 0.9333333333333333481 ) ;
#341 =( NAMED_UNIT ( * ) SI_UNIT ( $, .STERADIAN. ) SOLID_ANGLE_UNIT ( ) );
#342 = LINE ( 'NONE', #234, #383 ) ;
#343 = CARTESIAN_POINT ( 'NONE',  ( 7.999999999999996447, 17.99999999999999289, 40.00000000000000000 ) ) ;
#344 = DIRECTION ( 'NONE',  ( -0.000000000000000000, 0.000000000000000000, -1.000000000000000000 ) ) ;
#345 = CARTESIAN_POINT ( 'NONE',  ( 53.75000000000000711, -2.490167570353802180E-15, 1.071565949253934519E-15 ) ) ;
#346 = ADVANCED_FACE ( 'NONE', ( #316, #186 ), #190, .F. ) ;
#347 = VECTOR ( 'NONE', #59, 1000.000000000000000 ) ;
#348 = VECTOR ( 'NONE', #119, 1000.000000000000000 ) ;
#349 = ORIENTED_EDGE ( 'NONE', *, *, #136, .T. ) ;
#350 = EDGE_LOOP ( 'NONE', ( #427, #222, #10, #184 ) ) ;
#351 = DIRECTION ( 'NONE',  ( 1.000000000000000000, -1.119176436114070318E-16, -0.000000000000000000 ) ) ;
#352 = EDGE_LOOP ( 'NONE', ( #44, #386 ) ) ;
#353 = CARTESIAN_POINT ( 'NONE',  ( 18.00000000000006395, 7.999999999999992895, 40.00000000000000000 ) ) ;
#354 = LINE ( 'NONE', #48, #373 ) ;
#355 = ADVANCED_FACE ( 'NONE', ( #19 ), #285, .F. ) ;
#356 = CARTESIAN_POINT ( 'NONE',  ( 45.00000000000000711, 7.999999999999996447, 0.000000000000000000 ) ) ;
#357 = ORIENTED_EDGE ( 'NONE', *, *, #136, .F. ) ;
#358 = CARTESIAN_POINT ( 'NONE',  ( 45.00000000000000711, -3.469446951953614189E-15, 0.000000000000000000 ) ) ;
#359 = FACE_OUTER_BOUND ( 'NONE', #281, .T. ) ;
#360 = DIRECTION ( 'NONE',  ( -1.000000000000000000, 0.000000000000000000, 0.000000000000000000 ) ) ;
#361 = VERTEX_POINT ( 'NONE', #153 ) ;
#362 = PRESENTATION_LAYER_ASSIGNMENT (  '', '', ( #144 ) ) ;
#363 = DIRECTION ( 'NONE',  ( -0.000000000000000000, 0.000000000000000000, -1.000000000000000000 ) ) ;
#364 = DIRECTION ( 'NONE',  ( -1.000000000000000000, -1.119176436114070564E-16, 0.000000000000000000 ) ) ;
#365 = CARTESIAN_POINT ( 'NONE',  ( 80.00000000000000000, 0.000000000000000000, 40.00000000000000000 ) ) ;
#366 = EDGE_LOOP ( 'NONE', ( #202, #116, #321, #91 ) ) ;
#367 = ADVANCED_FACE ( 'NONE', ( #300 ), #148, .F. ) ;
#368 = DIRECTION ( 'NONE',  ( 1.000000000000000000, -1.119176436114070318E-16, 0.000000000000000000 ) ) ;
#369 = AXIS2_PLACEMENT_3D ( 'NONE', #95, #389, #85 ) ;
#370 = AXIS2_PLACEMENT_3D ( 'NONE', #212, #241, #107 ) ;
#371 = DIRECTION ( 'NONE',  ( -0.000000000000000000, -0.000000000000000000, -1.000000000000000000 ) ) ;
#372 = EDGE_LOOP ( 'NONE', ( #118, #421, #20, #400 ) ) ;
#373 = VECTOR ( 'NONE', #120, 1000.000000000000000 ) ;
#374 = DIRECTION ( 'NONE',  ( -1.119176436114070318E-16, 1.000000000000000000, -0.000000000000000000 ) ) ;
#375 = ADVANCED_FACE ( 'NONE', ( #332 ), #29, .F. ) ;
#376 = FACE_BOUND ( 'NONE', #418, .T. ) ;
#377 = LINE ( 'NONE', #36, #158 ) ;
#378 = DIRECTION ( 'NONE',  ( -1.119176436114070318E-16, 1.000000000000000000, 0.000000000000000000 ) ) ;
#379 = LINE ( 'NONE', #74, #200 ) ;
#380 = VERTEX_POINT ( 'NONE', #227 ) ;
#381 = AXIS2_PLACEMENT_3D ( 'NONE', #167, #320, #289 ) ;
#382 = CIRCLE ( 'NONE', #235, 9.999999999999998224 ) ;
#383 = VECTOR ( 'NONE', #127, 1000.000000000000000 ) ;
#384 = FILL_AREA_STYLE ('',( #252 ) ) ;
#385 = CARTESIAN_POINT ( 'NONE',  ( 53.75000000000000711, 7.999999999999998224, 1.071565949253934913E-15 ) ) ;
#386 = ORIENTED_EDGE ( 'NONE', *, *, #293, .F. ) ;
#387 = SURFACE_SIDE_STYLE ('',( #80 ) ) ;
#388 = EDGE_LOOP ( 'NONE', ( #390, #230, #290, #434 ) ) ;
#389 = DIRECTION ( 'NONE',  ( -0.000000000000000000, -0.000000000000000000, -1.000000000000000000 ) ) ;
#390 = ORIENTED_EDGE ( 'NONE', *, *, #18, .F. ) ;
#391 = CARTESIAN_POINT ( 'NONE',  ( -6.183449809530233292E-15, 36.25000000000000711, 1.071565949253934519E-15 ) ) ;
#392 = ORIENTED_EDGE ( 'NONE', *, *, #87, .T. ) ;
#393 = DIRECTION ( 'NONE',  ( -0.000000000000000000, -0.000000000000000000, -1.000000000000000000 ) ) ;
#394 = EDGE_LOOP ( 'NONE', ( #89, #265, #46, #27 ) ) ;
#395 = CARTESIAN_POINT ( 'NONE',  ( -4.224891046330609274E-15, 53.75000000000000711, 0.000000000000000000 ) ) ;
#396 = ORIENTED_EDGE ( 'NONE', *, *, #250, .F. ) ;
#397 =( GEOMETRIC_REPRESENTATION_CONTEXT ( 3 ) GLOBAL_UNCERTAINTY_ASSIGNED_CONTEXT ( ( #272 ) ) GLOBAL_UNIT_ASSIGNED_CONTEXT ( ( #171, #305, #341 ) ) REPRESENTATION_CONTEXT ( 'NONE', 'WORKASPACE' ) );
#398 = FACE_OUTER_BOUND ( 'NONE', #86, .T. ) ;
#399 = CARTESIAN_POINT ( 'NONE',  ( 80.00000000000000000, 8.000000000000000000, 40.00000000000000000 ) ) ;
#400 = ORIENTED_EDGE ( 'NONE', *, *, #249, .T. ) ;
#401 = DIRECTION ( 'NONE',  ( -1.000000000000000000, 0.000000000000000000, 0.000000000000000000 ) ) ;
#402 = ADVANCED_BREP_SHAPE_REPRESENTATION ( 'EN AW-6061-T6 Winkelstahl', ( #414, #54 ), #2 ) ;
#403 = APPLICATION_PROTOCOL_DEFINITION ( 'draft international standard', 'automotive_design', 1998, #308 ) ;
#404 = VECTOR ( 'NONE', #351, 1000.000000000000000 ) ;
#405 = CIRCLE ( 'NONE', #236, 8.750000000000000000 ) ;
#406 = LINE ( 'NONE', #105, #139 ) ;
#407 = EDGE_CURVE ( 'NONE', #12, #65, #164, .T. ) ;
#408 = DIRECTION ( 'NONE',  ( 1.119176436114070564E-16, 1.000000000000000000, 0.000000000000000000 ) ) ;
#409 = CARTESIAN_POINT ( 'NONE',  ( 17.99999999999999645, 17.99999999999999289, 40.00000000000000000 ) ) ;
#410 = DIRECTION ( 'NONE',  ( 1.000000000000000000, 0.000000000000000000, 0.000000000000000000 ) ) ;
#411 = ORIENTED_EDGE ( 'NONE', *, *, #185, .T. ) ;
#412 = EDGE_CURVE ( 'NONE', #260, #193, #32, .T. ) ;
#413 = ORIENTED_EDGE ( 'NONE', *, *, #99, .T. ) ;
#414 = MANIFOLD_SOLID_BREP ( 'Bohrung Vertikal', #113 ) ;
#415 = AXIS2_PLACEMENT_3D ( 'NONE', #431, #151, #123 ) ;
#416 = CIRCLE ( 'NONE', #275, 8.750000000000000000 ) ;
#417 = VECTOR ( 'NONE', #189, 1000.000000000000000 ) ;
#418 = EDGE_LOOP ( 'NONE', ( #191, #392 ) ) ;
#419 = ORIENTED_EDGE ( 'NONE', *, *, #67, .F. ) ;
#420 = CARTESIAN_POINT ( 'NONE',  ( 8.000000000000001776, 80.00000000000000000, 40.00000000000000000 ) ) ;
#421 = ORIENTED_EDGE ( 'NONE', *, *, #129, .F. ) ;
#422 = PLANE ( 'NONE',  #112 ) ;
#423 = VERTEX_POINT ( 'NONE', #208 ) ;
#424 = CARTESIAN_POINT ( 'NONE',  ( 8.000000000000001776, 80.00000000000000000, 40.00000000000000000 ) ) ;
#425 = ORIENTED_EDGE ( 'NONE', *, *, #73, .F. ) ;
#426 = DIRECTION ( 'NONE',  ( 1.000000000000000000, -1.119176436114070318E-16, 0.000000000000000000 ) ) ;
#427 = ORIENTED_EDGE ( 'NONE', *, *, #78, .T. ) ;
#428 = EDGE_CURVE ( 'NONE', #12, #147, #255, .T. ) ;
#429 = DIRECTION ( 'NONE',  ( 0.000000000000000000, 1.000000000000000000, 0.000000000000000000 ) ) ;
#430 = ORIENTED_EDGE ( 'NONE', *, *, #172, .T. ) ;
#431 = CARTESIAN_POINT ( 'NONE',  ( 80.00000000000000000, 8.000000000000000000, 40.00000000000000000 ) ) ;
#432 = DIRECTION ( 'NONE',  ( 1.000000000000000000, -1.119176436114070318E-16, -0.000000000000000000 ) ) ;
#433 = DIRECTION ( 'NONE',  ( -0.000000000000000000, -0.000000000000000000, -1.000000000000000000 ) ) ;
#434 = ORIENTED_EDGE ( 'NONE', *, *, #145, .F. ) ;
#435 = LINE ( 'NONE', #132, #111 ) ;
#436 = DIRECTION ( 'NONE',  ( 1.000000000000000000, 0.000000000000000000, 0.000000000000000000 ) ) ;
ENDSEC;
END-ISO-10303-21;
