ISO-10303-21;
HEADER;
FILE_DESCRIPTION (( 'STEP AP214' ),
    '1' );
FILE_NAME ('EN AW-6061-T6 Winkelstahl Optimiert.STEP',
    '2026-09-18T11:24:45',
    ( '' ),
    ( '' ),
    'SwSTEP 2.0',
    'SolidWorks 2025',
    '' );
FILE_SCHEMA (( 'AUTOMOTIVE_DESIGN' ));
ENDSEC;

DATA;
#1 = ORIENTED_EDGE ( 'NONE', *, *, #214, .T. ) ;
#2 = DIRECTION ( 'NONE',  ( -1.119176436114070318E-16, 1.000000000000000000, 0.000000000000000000 ) ) ;
#3 = AXIS2_PLACEMENT_3D ( 'NONE', #129, #173, #479 ) ;
#4 = EDGE_CURVE ( 'NONE', #310, #67, #397, .T. ) ;
#5 = ORIENTED_EDGE ( 'NONE', *, *, #411, .F. ) ;
#6 = LINE ( 'NONE', #274, #542 ) ;
#7 = EDGE_LOOP ( 'NONE', ( #143, #137, #513, #93, #529, #236, #230, #186 ) ) ;
#8 = DIRECTION ( 'NONE',  ( -0.6454071351869230533, -7.223244574010924788E-17, 0.7638387459731332818 ) ) ;
#9 = ORIENTED_EDGE ( 'NONE', *, *, #383, .T. ) ;
#10 = CARTESIAN_POINT ( 'NONE',  ( 9.389626173925006416E-16, 80.00000000000000000, 40.00000000000000000 ) ) ;
#11 = EDGE_CURVE ( 'NONE', #419, #552, #524, .T. ) ;
#12 = VECTOR ( 'NONE', #212, 1000.000000000000000 ) ;
#13 = DIRECTION ( 'NONE',  ( -0.7638387459731335039, 0.000000000000000000, 0.6454071351869227202 ) ) ;
#14 = ORIENTED_EDGE ( 'NONE', *, *, #171, .T. ) ;
#15 = CARTESIAN_POINT ( 'NONE',  ( 22.17044744974455384, 7.999999999999992895, -35.00000000000000000 ) ) ;
#16 = LINE ( 'NONE', #500, #496 ) ;
#17 = ORIENTED_EDGE ( 'NONE', *, *, #31, .F. ) ;
#18 = DIRECTION ( 'NONE',  ( 1.000000000000000000, 0.000000000000000000, 2.775557561562890957E-15 ) ) ;
#19 = PLANE ( 'NONE',  #40 ) ;
#20 = EDGE_LOOP ( 'NONE', ( #367, #539 ) ) ;
#21 = ADVANCED_FACE ( 'NONE', ( #124 ), #308, .F. ) ;
#22 = AXIS2_PLACEMENT_3D ( 'NONE', #302, #394, #521 ) ;
#23 = AXIS2_PLACEMENT_3D ( 'NONE', #557, #163, #123 ) ;
#24 = CARTESIAN_POINT ( 'NONE',  ( 0.000000000000000000, 0.000000000000000000, 40.00000000000000000 ) ) ;
#25 = ORIENTED_EDGE ( 'NONE', *, *, #171, .F. ) ;
#26 = PLANE ( 'NONE',  #107 ) ;
#27 = FACE_OUTER_BOUND ( 'NONE', #7, .T. ) ;
#28 = FACE_OUTER_BOUND ( 'NONE', #361, .T. ) ;
#29 = CARTESIAN_POINT ( 'NONE',  ( 9.389626173925006416E-16, 80.00000000000000000, 40.00000000000000000 ) ) ;
#30 = DIRECTION ( 'NONE',  ( 0.000000000000000000, -1.000000000000000000, 0.000000000000000000 ) ) ;
#31 = EDGE_CURVE ( 'NONE', #537, #290, #352, .T. ) ;
#32 = DIRECTION ( 'NONE',  ( -1.000000000000000000, 0.000000000000000000, 0.000000000000000000 ) ) ;
#33 = CARTESIAN_POINT ( 'NONE',  ( 8.000000000000001776, 80.00000000000000000, 40.00000000000000000 ) ) ;
#34 = DIRECTION ( 'NONE',  ( -1.173703271740625710E-17, -1.000000000000000000, 0.000000000000000000 ) ) ;
#35 = ADVANCED_FACE ( 'NONE', ( #431, #27 ), #307, .F. ) ;
#36 = AXIS2_PLACEMENT_3D ( 'NONE', #495, #58, #528 ) ;
#37 = DIRECTION ( 'NONE',  ( -1.000000000000000000, -1.119176436114070318E-16, 0.000000000000000000 ) ) ;
#38 = CARTESIAN_POINT ( 'NONE',  ( 22.17044744974455384, 0.000000000000000000, -35.00000000000000000 ) ) ;
#39 = STYLED_ITEM ( 'NONE', ( #318 ), #113 ) ;
#40 = AXIS2_PLACEMENT_3D ( 'NONE', #247, #295, #507 ) ;
#41 = ADVANCED_FACE ( 'NONE', ( #525 ), #74, .T. ) ;
#42 = DIRECTION ( 'NONE',  ( -0.000000000000000000, -0.000000000000000000, -1.000000000000000000 ) ) ;
#43 = ORIENTED_EDGE ( 'NONE', *, *, #243, .F. ) ;
#44 = ORIENTED_EDGE ( 'NONE', *, *, #360, .F. ) ;
#45 = ADVANCED_FACE ( 'NONE', ( #206 ), #388, .F. ) ;
#46 = DIRECTION ( 'NONE',  ( -0.000000000000000000, -0.000000000000000000, -1.000000000000000000 ) ) ;
#47 = EDGE_LOOP ( 'NONE', ( #375, #573, #14, #148 ) ) ;
#48 = CARTESIAN_POINT ( 'NONE',  ( 8.000000000000001776, 80.00000000000000000, 40.00000000000000000 ) ) ;
#49 = ORIENTED_EDGE ( 'NONE', *, *, #183, .F. ) ;
#50 = EDGE_CURVE ( 'NONE', #100, #225, #208, .T. ) ;
#51 = CARTESIAN_POINT ( 'NONE',  ( 25.39748312567917310, 7.999999999999994671, 38.81919372986566685 ) ) ;
#52 = DIRECTION ( 'NONE',  ( 0.7638387459731332818, 0.000000000000000000, 0.6454071351869230533 ) ) ;
#53 = EDGE_LOOP ( 'NONE', ( #562, #83, #486, #322 ) ) ;
#54 = EDGE_CURVE ( 'NONE', #334, #91, #213, .T. ) ;
#55 = CARTESIAN_POINT ( 'NONE',  ( 9.389626173925006416E-16, 80.00000000000000000, 40.00000000000000000 ) ) ;
#56 = DIRECTION ( 'NONE',  ( -1.119176436114070318E-16, 1.000000000000000000, 0.000000000000000000 ) ) ;
#57 = ORIENTED_EDGE ( 'NONE', *, *, #472, .F. ) ;
#58 = DIRECTION ( 'NONE',  ( 1.119176436114070318E-16, -1.000000000000000000, 0.000000000000000000 ) ) ;
#59 = ADVANCED_FACE ( 'NONE', ( #169 ), #339, .T. ) ;
#60 = CARTESIAN_POINT ( 'NONE',  ( 22.17044744974455384, 0.000000000000000000, -40.00000000000000000 ) ) ;
#61 = ORIENTED_EDGE ( 'NONE', *, *, #121, .T. ) ;
#62 = CARTESIAN_POINT ( 'NONE',  ( 22.17044744974455739, 0.000000000000000000, 40.00000000000000000 ) ) ;
#63 =( NAMED_UNIT ( * ) SI_UNIT ( $, .STERADIAN. ) SOLID_ANGLE_UNIT ( ) );
#64 = ORIENTED_EDGE ( 'NONE', *, *, #177, .F. ) ;
#65 = VECTOR ( 'NONE', #423, 1000.000000000000000 ) ;
#66 = FACE_BOUND ( 'NONE', #222, .T. ) ;
#67 = VERTEX_POINT ( 'NONE', #567 ) ;
#68 = FACE_OUTER_BOUND ( 'NONE', #471, .T. ) ;
#69 = CIRCLE ( 'NONE', #88, 8.750000000000000000 ) ;
#70 = VECTOR ( 'NONE', #538, 1000.000000000000000 ) ;
#71 = PRODUCT_CONTEXT ( 'NONE', #485, 'mechanical' ) ;
#72 = CARTESIAN_POINT ( 'NONE',  ( 9.389626173925006416E-16, 80.00000000000000000, -40.00000000000000000 ) ) ;
#73 = CARTESIAN_POINT ( 'NONE',  ( 7.999999999999998224, 45.00000000000000711, 0.000000000000000000 ) ) ;
#74 = CYLINDRICAL_SURFACE ( 'NONE', #533, 16.99999999999999289 ) ;
#75 = DIRECTION ( 'NONE',  ( 1.000000000000000000, -1.119176436114070318E-16, -0.000000000000000000 ) ) ;
#76 = DIRECTION ( 'NONE',  ( 1.000000000000000000, 0.000000000000000000, 0.000000000000000000 ) ) ;
#77 = DIRECTION ( 'NONE',  ( -1.119176436114070318E-16, 1.000000000000000000, 0.000000000000000000 ) ) ;
#78 = DIRECTION ( 'NONE',  ( 1.119176436114070318E-16, 1.000000000000000000, 0.000000000000000000 ) ) ;
#79 = CARTESIAN_POINT ( 'NONE',  ( 53.75000000000000711, -2.490167570353801786E-15, 1.071565949253934913E-15 ) ) ;
#80 = ORIENTED_EDGE ( 'NONE', *, *, #121, .F. ) ;
#81 = AXIS2_PLACEMENT_3D ( 'NONE', #349, #82, #522 ) ;
#82 = DIRECTION ( 'NONE',  ( 1.119176436114070318E-16, -1.000000000000000000, -0.000000000000000000 ) ) ;
#83 = ORIENTED_EDGE ( 'NONE', *, *, #280, .F. ) ;
#84 = VECTOR ( 'NONE', #75, 1000.000000000000000 ) ;
#85 = ORIENTED_EDGE ( 'NONE', *, *, #297, .T. ) ;
#86 = ADVANCED_FACE ( 'NONE', ( #251, #475 ), #434, .F. ) ;
#87 = FACE_BOUND ( 'NONE', #405, .T. ) ;
#88 = AXIS2_PLACEMENT_3D ( 'NONE', #420, #101, #277 ) ;
#89 = ORIENTED_EDGE ( 'NONE', *, *, #214, .F. ) ;
#90 = CIRCLE ( 'NONE', #473, 16.99999999999999289 ) ;
#91 = VERTEX_POINT ( 'NONE', #482 ) ;
#92 = CARTESIAN_POINT ( 'NONE',  ( 22.17044744974455739, 7.999999999999992895, -40.00000000000000000 ) ) ;
#93 = ORIENTED_EDGE ( 'NONE', *, *, #99, .T. ) ;
#94 = FACE_OUTER_BOUND ( 'NONE', #327, .T. ) ;
#95 = EDGE_LOOP ( 'NONE', ( #176, #293, #194, #233 ) ) ;
#96 = AXIS2_PLACEMENT_3D ( 'NONE', #406, #2, #180 ) ;
#97 = CARTESIAN_POINT ( 'NONE',  ( 24.00000000000006395, 7.999999999999994671, 40.00000000000000000 ) ) ;
#98 = CARTESIAN_POINT ( 'NONE',  ( 24.00000000000006395, -1.040834085586084257E-14, 40.00000000000000000 ) ) ;
#99 = EDGE_CURVE ( 'NONE', #534, #153, #481, .T. ) ;
#100 = VERTEX_POINT ( 'NONE', #79 ) ;
#101 = DIRECTION ( 'NONE',  ( 1.000000000000000000, -1.119176436114070318E-16, 0.000000000000000000 ) ) ;
#102 = CARTESIAN_POINT ( 'NONE',  ( 18.00000000000006395, 7.999999999999992895, -40.00000000000000000 ) ) ;
#103 = ORIENTED_EDGE ( 'NONE', *, *, #54, .F. ) ;
#104 = DIRECTION ( 'NONE',  ( -1.000000000000000000, -1.982541115402065356E-16, 0.000000000000000000 ) ) ;
#105 = CARTESIAN_POINT ( 'NONE',  ( 55.97192129817769057, -6.938893903907228378E-15, -12.98525868154326091 ) ) ;
#106 = EDGE_LOOP ( 'NONE', ( #501, #117, #128, #317 ) ) ;
#107 = AXIS2_PLACEMENT_3D ( 'NONE', #343, #250, #387 ) ;
#108 = FACE_OUTER_BOUND ( 'NONE', #106, .T. ) ;
#109 = ORIENTED_EDGE ( 'NONE', *, *, #256, .T. ) ;
#110 = VECTOR ( 'NONE', #564, 1000.000000000000000 ) ;
#111 = DIRECTION ( 'NONE',  ( 1.000000000000000000, -1.119176436114070318E-16, -0.000000000000000000 ) ) ;
#112 = EDGE_CURVE ( 'NONE', #428, #100, #260, .T. ) ;
#113 = MANIFOLD_SOLID_BREP ( 'Verrundung', #289 ) ;
#114 = ORIENTED_EDGE ( 'NONE', *, *, #558, .F. ) ;
#115 = VECTOR ( 'NONE', #435, 1000.000000000000000 ) ;
#116 = LINE ( 'NONE', #563, #65 ) ;
#117 = ORIENTED_EDGE ( 'NONE', *, *, #219, .F. ) ;
#118 = DIRECTION ( 'NONE',  ( -0.000000000000000000, -0.000000000000000000, -1.000000000000000000 ) ) ;
#119 = APPLICATION_CONTEXT ( 'automotive_design' ) ;
#120 = CARTESIAN_POINT ( 'NONE',  ( 80.00000000000000000, 8.000000000000000000, 40.00000000000000000 ) ) ;
#121 = EDGE_CURVE ( 'NONE', #189, #310, #261, .T. ) ;
#122 = PRODUCT_DEFINITION_FORMATION_WITH_SPECIFIED_SOURCE ( 'ANY', '', #285, .NOT_KNOWN. ) ;
#123 = DIRECTION ( 'NONE',  ( 1.119176436114070564E-16, 1.000000000000000000, 0.000000000000000000 ) ) ;
#124 = FACE_OUTER_BOUND ( 'NONE', #313, .T. ) ;
#125 = LINE ( 'NONE', #438, #321 ) ;
#126 = SURFACE_SIDE_STYLE ('',( #211 ) ) ;
#127 = CARTESIAN_POINT ( 'NONE',  ( 24.00000000000006395, 7.999999999999994671, -40.00000000000000000 ) ) ;
#128 = ORIENTED_EDGE ( 'NONE', *, *, #382, .F. ) ;
#129 = CARTESIAN_POINT ( 'NONE',  ( 45.00000000000000711, -3.469446951953614189E-15, 0.000000000000000000 ) ) ;
#130 = VERTEX_POINT ( 'NONE', #373 ) ;
#131 = CARTESIAN_POINT ( 'NONE',  ( 8.000000000000001776, 80.00000000000000000, 40.00000000000000000 ) ) ;
#132 = ORIENTED_EDGE ( 'NONE', *, *, #324, .T. ) ;
#133 = DIRECTION ( 'NONE',  ( -0.000000000000000000, -0.000000000000000000, -1.000000000000000000 ) ) ;
#134 = VERTEX_POINT ( 'NONE', #416 ) ;
#135 = AXIS2_PLACEMENT_3D ( 'NONE', #559, #301, #390 ) ;
#136 = CARTESIAN_POINT ( 'NONE',  ( 36.25000000000000711, -4.448726333553426198E-15, 0.000000000000000000 ) ) ;
#137 = ORIENTED_EDGE ( 'NONE', *, *, #164, .T. ) ;
#138 = PLANE ( 'NONE',  #517 ) ;
#139 = AXIS2_PLACEMENT_3D ( 'NONE', #551, #111, #160 ) ;
#140 = VERTEX_POINT ( 'NONE', #10 ) ;
#141 = EDGE_CURVE ( 'NONE', #548, #134, #220, .T. ) ;
#142 = CARTESIAN_POINT ( 'NONE',  ( 0.000000000000000000, 0.000000000000000000, 40.00000000000000000 ) ) ;
#143 = ORIENTED_EDGE ( 'NONE', *, *, #553, .T. ) ;
#144 =( GEOMETRIC_REPRESENTATION_CONTEXT ( 3 ) GLOBAL_UNCERTAINTY_ASSIGNED_CONTEXT ( ( #181 ) ) GLOBAL_UNIT_ASSIGNED_CONTEXT ( ( #152, #484, #442 ) ) REPRESENTATION_CONTEXT ( 'NONE', 'WORKASPACE' ) );
#145 = VECTOR ( 'NONE', #150, 1000.000000000000000 ) ;
#146 = DIRECTION ( 'NONE',  ( -1.119176436114070318E-16, 1.000000000000000000, -1.604257005856664857E-32 ) ) ;
#147 = CARTESIAN_POINT ( 'NONE',  ( 8.000000000000001776, 80.00000000000000000, -40.00000000000000000 ) ) ;
#148 = ORIENTED_EDGE ( 'NONE', *, *, #324, .F. ) ;
#149 = DIRECTION ( 'NONE',  ( 1.119176436114070318E-16, -1.000000000000000000, -0.000000000000000000 ) ) ;
#150 = DIRECTION ( 'NONE',  ( 1.000000000000000000, 0.000000000000000000, 0.000000000000000000 ) ) ;
#151 = ORIENTED_EDGE ( 'NONE', *, *, #204, .F. ) ;
#152 =( LENGTH_UNIT ( ) NAMED_UNIT ( * ) SI_UNIT ( .MILLI., .METRE. ) );
#153 = VERTEX_POINT ( 'NONE', #376 ) ;
#154 = ADVANCED_FACE ( 'NONE', ( #87, #502 ), #192, .F. ) ;
#155 = CARTESIAN_POINT ( 'NONE',  ( 25.39748312567916955, 7.999999999999994671, -38.81919372986566685 ) ) ;
#156 = DIRECTION ( 'NONE',  ( 0.000000000000000000, 0.000000000000000000, 1.000000000000000000 ) ) ;
#157 =( GEOMETRIC_REPRESENTATION_CONTEXT ( 3 ) GLOBAL_UNCERTAINTY_ASSIGNED_CONTEXT ( ( #253 ) ) GLOBAL_UNIT_ASSIGNED_CONTEXT ( ( #288, #202, #63 ) ) REPRESENTATION_CONTEXT ( 'NONE', 'WORKASPACE' ) );
#158 = ORIENTED_EDGE ( 'NONE', *, *, #11, .F. ) ;
#159 = AXIS2_PLACEMENT_3D ( 'NONE', #516, #561, #32 ) ;
#160 = DIRECTION ( 'NONE',  ( 1.119176436114070564E-16, 1.000000000000000000, 0.000000000000000000 ) ) ;
#161 = CARTESIAN_POINT ( 'NONE',  ( 0.000000000000000000, 0.000000000000000000, 0.000000000000000000 ) ) ;
#162 = ORIENTED_EDGE ( 'NONE', *, *, #304, .T. ) ;
#163 = DIRECTION ( 'NONE',  ( 1.000000000000000000, -1.119176436114070318E-16, 0.000000000000000000 ) ) ;
#164 = EDGE_CURVE ( 'NONE', #494, #189, #234, .T. ) ;
#165 = CARTESIAN_POINT ( 'NONE',  ( 45.00000000000000711, -3.469446951953614189E-15, 0.000000000000000000 ) ) ;
#166 = DIRECTION ( 'NONE',  ( -0.000000000000000000, 0.000000000000000000, -1.000000000000000000 ) ) ;
#167 = CARTESIAN_POINT ( 'NONE',  ( -6.183449809530233292E-15, 36.25000000000000711, 1.071565949253934519E-15 ) ) ;
#168 = CARTESIAN_POINT ( 'NONE',  ( 22.17044744974456094, 0.000000000000000000, 35.00000000000000000 ) ) ;
#169 = FACE_OUTER_BOUND ( 'NONE', #372, .T. ) ;
#170 = ORIENTED_EDGE ( 'NONE', *, *, #464, .F. ) ;
#171 = EDGE_CURVE ( 'NONE', #225, #415, #540, .T. ) ;
#172 = AXIS2_PLACEMENT_3D ( 'NONE', #229, #46, #323 ) ;
#173 = DIRECTION ( 'NONE',  ( -1.119176436114070318E-16, 1.000000000000000000, -0.000000000000000000 ) ) ;
#174 = ORIENTED_EDGE ( 'NONE', *, *, #183, .T. ) ;
#175 = DIRECTION ( 'NONE',  ( -0.000000000000000000, -0.000000000000000000, -1.000000000000000000 ) ) ;
#176 = ORIENTED_EDGE ( 'NONE', *, *, #177, .T. ) ;
#177 = EDGE_CURVE ( 'NONE', #378, #178, #444, .T. ) ;
#178 = VERTEX_POINT ( 'NONE', #51 ) ;
#179 = ORIENTED_EDGE ( 'NONE', *, *, #262, .F. ) ;
#180 = DIRECTION ( 'NONE',  ( -1.000000000000000000, -1.119176436114070564E-16, 0.000000000000000000 ) ) ;
#181 = UNCERTAINTY_MEASURE_WITH_UNIT (LENGTH_MEASURE( 1.000000000000000082E-05 ), #152, 'distance_accuracy_value', 'NONE');
#182 = ORIENTED_EDGE ( 'NONE', *, *, #262, .T. ) ;
#183 = EDGE_CURVE ( 'NONE', #552, #130, #263, .T. ) ;
#184 = DIRECTION ( 'NONE',  ( 1.119176436114070318E-16, -1.000000000000000000, -0.000000000000000000 ) ) ;
#185 = AXIS2_PLACEMENT_3D ( 'NONE', #384, #30, #555 ) ;
#186 = ORIENTED_EDGE ( 'NONE', *, *, #280, .T. ) ;
#187 = DIRECTION ( 'NONE',  ( 1.119176436114070318E-16, -1.000000000000000000, 0.000000000000000000 ) ) ;
#188 = CYLINDRICAL_SURFACE ( 'NONE', #570, 8.750000000000000000 ) ;
#189 = VERTEX_POINT ( 'NONE', #499 ) ;
#190 = AXIS2_PLACEMENT_3D ( 'NONE', #228, #456, #104 ) ;
#191 = VECTOR ( 'NONE', #377, 1000.000000000000000 ) ;
#192 = PLANE ( 'NONE',  #370 ) ;
#193 = CARTESIAN_POINT ( 'NONE',  ( 24.00000000000006395, -1.040834085586084257E-14, -40.00000000000000000 ) ) ;
#194 = ORIENTED_EDGE ( 'NONE', *, *, #425, .F. ) ;
#195 = LINE ( 'NONE', #356, #412 ) ;
#196 = DIRECTION ( 'NONE',  ( -1.173703271740625710E-17, -1.000000000000000000, 0.000000000000000000 ) ) ;
#197 = PRODUCT_DEFINITION ( 'UNKNOWN', '', #122, #536 ) ;
#198 = EDGE_LOOP ( 'NONE', ( #488, #114, #49, #330 ) ) ;
#199 = LINE ( 'NONE', #24, #424 ) ;
#200 = ORIENTED_EDGE ( 'NONE', *, *, #314, .F. ) ;
#201 = DIRECTION ( 'NONE',  ( 1.119176436114070318E-16, -1.000000000000000000, -0.000000000000000000 ) ) ;
#202 =( NAMED_UNIT ( * ) PLANE_ANGLE_UNIT ( ) SI_UNIT ( $, .RADIAN. ) );
#203 = ORIENTED_EDGE ( 'NONE', *, *, #204, .T. ) ;
#204 = EDGE_CURVE ( 'NONE', #334, #410, #69, .T. ) ;
#205 = PLANE ( 'NONE',  #283 ) ;
#206 = FACE_OUTER_BOUND ( 'NONE', #47, .T. ) ;
#207 = DIRECTION ( 'NONE',  ( 1.000000000000000000, -1.119176436114070318E-16, 0.000000000000000000 ) ) ;
#208 = LINE ( 'NONE', #477, #333 ) ;
#209 = CIRCLE ( 'NONE', #359, 8.750000000000000000 ) ;
#210 = CARTESIAN_POINT ( 'NONE',  ( 0.000000000000000000, 0.000000000000000000, -40.00000000000000000 ) ) ;
#211 = SURFACE_STYLE_FILL_AREA ( #440 ) ;
#212 = DIRECTION ( 'NONE',  ( -1.000000000000000000, 0.000000000000000000, 0.000000000000000000 ) ) ;
#213 = LINE ( 'NONE', #167, #110 ) ;
#214 = EDGE_CURVE ( 'NONE', #310, #452, #244, .T. ) ;
#215 = DIRECTION ( 'NONE',  ( -1.119176436114070318E-16, 1.000000000000000000, -0.000000000000000000 ) ) ;
#216 = MECHANICAL_DESIGN_GEOMETRIC_PRESENTATION_REPRESENTATION (  '', ( #39 ), #144 ) ;
#217 = AXIS2_PLACEMENT_3D ( 'NONE', #168, #255, #347 ) ;
#218 = DIRECTION ( 'NONE',  ( -1.119176436114070318E-16, 1.000000000000000000, -0.000000000000000000 ) ) ;
#219 = EDGE_CURVE ( 'NONE', #140, #537, #572, .T. ) ;
#220 = LINE ( 'NONE', #131, #470 ) ;
#221 = ORIENTED_EDGE ( 'NONE', *, *, #353, .T. ) ;
#222 = EDGE_LOOP ( 'NONE', ( #259, #466 ) ) ;
#223 = CARTESIAN_POINT ( 'NONE',  ( 25.39748312567917310, -1.025669236637609073E-14, 38.81919372986566685 ) ) ;
#224 = EDGE_CURVE ( 'NONE', #452, #494, #195, .T. ) ;
#225 = VERTEX_POINT ( 'NONE', #231 ) ;
#226 = CARTESIAN_POINT ( 'NONE',  ( 18.00000000000006395, 7.999999999999992895, 40.00000000000000000 ) ) ;
#227 = ORIENTED_EDGE ( 'NONE', *, *, #553, .F. ) ;
#228 = CARTESIAN_POINT ( 'NONE',  ( 45.00000000000000711, 7.999999999999996447, 0.000000000000000000 ) ) ;
#229 = CARTESIAN_POINT ( 'NONE',  ( 17.99999999999999645, 17.99999999999999289, -40.00000000000000000 ) ) ;
#230 = ORIENTED_EDGE ( 'NONE', *, *, #304, .F. ) ;
#231 = CARTESIAN_POINT ( 'NONE',  ( 53.75000000000000711, 7.999999999999998224, 1.071565949253934913E-15 ) ) ;
#232 = CARTESIAN_POINT ( 'NONE',  ( 9.389626173925006416E-16, 80.00000000000000000, -40.00000000000000000 ) ) ;
#233 = ORIENTED_EDGE ( 'NONE', *, *, #520, .T. ) ;
#234 = CIRCLE ( 'NONE', #443, 5.000000000000000888 ) ;
#235 = DIRECTION ( 'NONE',  ( -1.000000000000000000, -1.020425574104004615E-16, 0.000000000000000000 ) ) ;
#236 = ORIENTED_EDGE ( 'NONE', *, *, #360, .T. ) ;
#237 = DIRECTION ( 'NONE',  ( 1.982541115402065356E-16, 1.000000000000000000, 0.000000000000000000 ) ) ;
#238 = ADVANCED_FACE ( 'NONE', ( #549 ), #354, .T. ) ;
#239 = CIRCLE ( 'NONE', #396, 5.000000000000000888 ) ;
#240 = ORIENTED_EDGE ( 'NONE', *, *, #141, .F. ) ;
#241 = CARTESIAN_POINT ( 'NONE',  ( 55.97192129817769057, -6.938893903907228378E-15, -12.98525868154326091 ) ) ;
#242 = ORIENTED_EDGE ( 'NONE', *, *, #50, .F. ) ;
#243 = EDGE_CURVE ( 'NONE', #279, #419, #248, .T. ) ;
#244 = CIRCLE ( 'NONE', #569, 5.000000000000000888 ) ;
#245 = AXIS2_PLACEMENT_3D ( 'NONE', #543, #56, #454 ) ;
#246 = LINE ( 'NONE', #294, #436 ) ;
#247 = CARTESIAN_POINT ( 'NONE',  ( 17.99999999999999645, 17.99999999999999289, 40.00000000000000000 ) ) ;
#248 = LINE ( 'NONE', #487, #365 ) ;
#249 = EDGE_CURVE ( 'NONE', #534, #67, #453, .T. ) ;
#250 = DIRECTION ( 'NONE',  ( -1.000000000000000000, 1.119176436114070318E-16, 0.000000000000000000 ) ) ;
#251 = FACE_BOUND ( 'NONE', #458, .T. ) ;
#252 = PLANE ( 'NONE',  #185 ) ;
#253 = UNCERTAINTY_MEASURE_WITH_UNIT (LENGTH_MEASURE( 1.000000000000000082E-05 ), #288, 'distance_accuracy_value', 'NONE');
#254 = FILL_AREA_STYLE_COLOUR ( '', #298 ) ;
#255 = DIRECTION ( 'NONE',  ( -0.000000000000000000, -1.000000000000000000, -0.000000000000000000 ) ) ;
#256 = EDGE_CURVE ( 'NONE', #337, #134, #476, .T. ) ;
#257 = DIRECTION ( 'NONE',  ( -1.000000000000000000, -1.119176436114070564E-16, 0.000000000000000000 ) ) ;
#258 = AXIS2_PLACEMENT_3D ( 'NONE', #161, #156, #76 ) ;
#259 = ORIENTED_EDGE ( 'NONE', *, *, #346, .F. ) ;
#260 = CIRCLE ( 'NONE', #554, 8.750000000000000000 ) ;
#261 = LINE ( 'NONE', #541, #320 ) ;
#262 = EDGE_CURVE ( 'NONE', #410, #449, #379, .T. ) ;
#263 = CIRCLE ( 'NONE', #340, 9.999999999999998224 ) ;
#264 = CIRCLE ( 'NONE', #172, 9.999999999999998224 ) ;
#265 = DIRECTION ( 'NONE',  ( -1.119176436114070318E-16, 1.000000000000000000, 0.000000000000000000 ) ) ;
#266 = ORIENTED_EDGE ( 'NONE', *, *, #11, .T. ) ;
#267 = ORIENTED_EDGE ( 'NONE', *, *, #404, .T. ) ;
#268 = LINE ( 'NONE', #193, #371 ) ;
#269 = ORIENTED_EDGE ( 'NONE', *, *, #99, .F. ) ;
#270 = EDGE_CURVE ( 'NONE', #419, #178, #239, .T. ) ;
#271 = CARTESIAN_POINT ( 'NONE',  ( -5.204170427930421283E-15, 45.00000000000000711, 0.000000000000000000 ) ) ;
#272 = ORIENTED_EDGE ( 'NONE', *, *, #270, .T. ) ;
#273 = DIRECTION ( 'NONE',  ( 1.000000000000000000, 0.000000000000000000, 0.000000000000000000 ) ) ;
#274 = CARTESIAN_POINT ( 'NONE',  ( 7.999999999999996447, 17.99999999999999289, 40.00000000000000000 ) ) ;
#275 = ORIENTED_EDGE ( 'NONE', *, *, #353, .F. ) ;
#276 = ADVANCED_FACE ( 'NONE', ( #328 ), #560, .F. ) ;
#277 = DIRECTION ( 'NONE',  ( 1.119176436114070564E-16, 1.000000000000000000, 0.000000000000000000 ) ) ;
#278 = DIRECTION ( 'NONE',  ( -0.6454071351869227202, -7.223244574010919858E-17, -0.7638387459731335039 ) ) ;
#279 = VERTEX_POINT ( 'NONE', #62 ) ;
#280 = EDGE_CURVE ( 'NONE', #422, #290, #199, .T. ) ;
#281 = ADVANCED_FACE ( 'NONE', ( #108 ), #252, .F. ) ;
#282 = DIRECTION ( 'NONE',  ( -1.000000000000000000, 0.000000000000000000, 0.000000000000000000 ) ) ;
#283 = AXIS2_PLACEMENT_3D ( 'NONE', #287, #166, #300 ) ;
#284 = CARTESIAN_POINT ( 'NONE',  ( 45.00000000000000711, 7.999999999999996447, 0.000000000000000000 ) ) ;
#285 = PRODUCT ( 'EN AW-6061-T6 Winkelstahl Optimiert', 'EN AW-6061-T6 Winkelstahl Optimiert', '', ( #71 ) ) ;
#286 = EDGE_LOOP ( 'NONE', ( #162, #381, #266, #174, #574, #358, #9 ) ) ;
#287 = CARTESIAN_POINT ( 'NONE',  ( 17.99999999999999645, 17.99999999999999289, -40.00000000000000000 ) ) ;
#288 =( LENGTH_UNIT ( ) NAMED_UNIT ( * ) SI_UNIT ( .MILLI., .METRE. ) );
#289 = CLOSED_SHELL ( 'NONE', ( #276, #45, #86, #35, #154, #357, #350, #281, #571, #331, #21, #432, #547, #41, #480, #238, #59 ) ) ;
#290 = VERTEX_POINT ( 'NONE', #210 ) ;
#291 = CARTESIAN_POINT ( 'NONE',  ( 7.999999999999996447, 17.99999999999999289, -40.00000000000000000 ) ) ;
#292 = EDGE_CURVE ( 'NONE', #91, #449, #492, .T. ) ;
#293 = ORIENTED_EDGE ( 'NONE', *, *, #314, .T. ) ;
#294 = CARTESIAN_POINT ( 'NONE',  ( 25.39748312567917310, -1.025193783744813308E-14, 38.81919372986566685 ) ) ;
#295 = DIRECTION ( 'NONE',  ( -0.000000000000000000, 0.000000000000000000, -1.000000000000000000 ) ) ;
#296 = EDGE_LOOP ( 'NONE', ( #504, #1, #85, #461, #158, #272, #64, #532 ) ) ;
#297 = EDGE_CURVE ( 'NONE', #452, #508, #389, .T. ) ;
#298 = COLOUR_RGB ( '',0.7921568627450980005, 0.8196078431372548767, 0.9333333333333333481 ) ;
#299 = VECTOR ( 'NONE', #196, 1000.000000000000000 ) ;
#300 = DIRECTION ( 'NONE',  ( -1.000000000000000000, 0.000000000000000000, 0.000000000000000000 ) ) ;
#301 = DIRECTION ( 'NONE',  ( 0.000000000000000000, 1.000000000000000000, 0.000000000000000000 ) ) ;
#302 = CARTESIAN_POINT ( 'NONE',  ( 17.99999999999999645, 17.99999999999999289, 40.00000000000000000 ) ) ;
#303 = DIRECTION ( 'NONE',  ( -1.000000000000000000, -1.119176436114070564E-16, 0.000000000000000000 ) ) ;
#304 = EDGE_CURVE ( 'NONE', #422, #279, #116, .T. ) ;
#305 = CARTESIAN_POINT ( 'NONE',  ( 55.97192129817769057, 7.999999999999998224, 12.98525868154327156 ) ) ;
#306 = DIRECTION ( 'NONE',  ( -1.119176436114070318E-16, 1.000000000000000000, -0.000000000000000000 ) ) ;
#307 = PLANE ( 'NONE',  #135 ) ;
#308 = CYLINDRICAL_SURFACE ( 'NONE', #3, 8.750000000000000000 ) ;
#309 = CARTESIAN_POINT ( 'NONE',  ( 17.99999999999999645, 17.99999999999999289, 40.00000000000000000 ) ) ;
#310 = VERTEX_POINT ( 'NONE', #155 ) ;
#311 = ORIENTED_EDGE ( 'NONE', *, *, #297, .F. ) ;
#312 = CARTESIAN_POINT ( 'NONE',  ( -4.224891046330609274E-15, 53.75000000000000711, 0.000000000000000000 ) ) ;
#313 = EDGE_LOOP ( 'NONE', ( #242, #445, #132, #403 ) ) ;
#314 = EDGE_CURVE ( 'NONE', #178, #489, #246, .T. ) ;
#315 = VECTOR ( 'NONE', #469, 1000.000000000000000 ) ;
#316 = CARTESIAN_POINT ( 'NONE',  ( 22.17044744974455739, 7.999999999999992895, 40.00000000000000000 ) ) ;
#317 = ORIENTED_EDGE ( 'NONE', *, *, #141, .T. ) ;
#318 = PRESENTATION_STYLE_ASSIGNMENT (( #531 ) ) ;
#319 = LINE ( 'NONE', #147, #191 ) ;
#320 = VECTOR ( 'NONE', #146, 1000.000000000000000 ) ;
#321 = VECTOR ( 'NONE', #78, 1000.000000000000000 ) ;
#322 = ORIENTED_EDGE ( 'NONE', *, *, #219, .T. ) ;
#323 = DIRECTION ( 'NONE',  ( -1.000000000000000000, 0.000000000000000000, 0.000000000000000000 ) ) ;
#324 = EDGE_CURVE ( 'NONE', #428, #415, #506, .T. ) ;
#325 = ORIENTED_EDGE ( 'NONE', *, *, #292, .T. ) ;
#326 = LINE ( 'NONE', #409, #145 ) ;
#327 = EDGE_LOOP ( 'NONE', ( #103, #275, #182, #544 ) ) ;
#328 = FACE_OUTER_BOUND ( 'NONE', #355, .T. ) ;
#329 = DIRECTION ( 'NONE',  ( -0.000000000000000000, -0.000000000000000000, -1.000000000000000000 ) ) ;
#330 = ORIENTED_EDGE ( 'NONE', *, *, #527, .T. ) ;
#331 = ADVANCED_FACE ( 'NONE', ( #68 ), #205, .T. ) ;
#332 = DIRECTION ( 'NONE',  ( -1.119176436114070318E-16, 1.000000000000000000, -0.000000000000000000 ) ) ;
#333 = VECTOR ( 'NONE', #306, 1000.000000000000000 ) ;
#334 = VERTEX_POINT ( 'NONE', #463 ) ;
#335 = CARTESIAN_POINT ( 'NONE',  ( 7.999999999999998224, 45.00000000000000711, 0.000000000000000000 ) ) ;
#336 = VECTOR ( 'NONE', #391, 1000.000000000000000 ) ;
#337 = VERTEX_POINT ( 'NONE', #291 ) ;
#338 = FACE_OUTER_BOUND ( 'NONE', #198, .T. ) ;
#339 = CYLINDRICAL_SURFACE ( 'NONE', #159, 5.000000000000000888 ) ;
#340 = AXIS2_PLACEMENT_3D ( 'NONE', #309, #133, #282 ) ;
#341 = ADVANCED_BREP_SHAPE_REPRESENTATION ( 'EN AW-6061-T6 Winkelstahl Optimiert', ( #113, #258 ), #157 ) ;
#342 = CIRCLE ( 'NONE', #96, 8.750000000000000000 ) ;
#343 = CARTESIAN_POINT ( 'NONE',  ( 7.999999999999994671, 18.00000000000006395, 40.00000000000000000 ) ) ;
#344 = APPLICATION_PROTOCOL_DEFINITION ( 'draft international standard', 'automotive_design', 1998, #119 ) ;
#345 = DIRECTION ( 'NONE',  ( 1.000000000000000000, -1.173703271740625710E-17, 0.000000000000000000 ) ) ;
#346 = EDGE_CURVE ( 'NONE', #449, #91, #209, .T. ) ;
#347 = DIRECTION ( 'NONE',  ( 6.938893903907232322E-15, 0.000000000000000000, 1.000000000000000000 ) ) ;
#348 = DIRECTION ( 'NONE',  ( 1.173703271740625710E-17, 1.000000000000000000, 0.000000000000000000 ) ) ;
#349 = CARTESIAN_POINT ( 'NONE',  ( 45.00000000000000711, -8.673617379884035472E-15, 0.000000000000000000 ) ) ;
#350 = ADVANCED_FACE ( 'NONE', ( #66, #28 ), #26, .F. ) ;
#351 = CIRCLE ( 'NONE', #245, 8.750000000000000000 ) ;
#352 = LINE ( 'NONE', #72, #392 ) ;
#353 = EDGE_CURVE ( 'NONE', #410, #334, #368, .T. ) ;
#354 = CYLINDRICAL_SURFACE ( 'NONE', #36, 5.000000000000000888 ) ;
#355 = EDGE_LOOP ( 'NONE', ( #151, #526, #325, #179 ) ) ;
#356 = CARTESIAN_POINT ( 'NONE',  ( 22.17044744974455384, -2.047592102878369465E-16, -40.00000000000000000 ) ) ;
#357 = ADVANCED_FACE ( 'NONE', ( #338 ), #474, .F. ) ;
#358 = ORIENTED_EDGE ( 'NONE', *, *, #382, .T. ) ;
#359 = AXIS2_PLACEMENT_3D ( 'NONE', #73, #430, #467 ) ;
#360 = EDGE_CURVE ( 'NONE', #489, #279, #530, .T. ) ;
#361 = EDGE_LOOP ( 'NONE', ( #109, #240, #550, #468 ) ) ;
#362 = LINE ( 'NONE', #535, #429 ) ;
#363 = EDGE_LOOP ( 'NONE', ( #491, #498, #89, #80 ) ) ;
#364 = EDGE_CURVE ( 'NONE', #130, #548, #125, .T. ) ;
#365 = VECTOR ( 'NONE', #265, 1000.000000000000000 ) ;
#366 = DIRECTION ( 'NONE',  ( -0.7638387459731335039, -8.288829389654516289E-17, 0.6454071351869227202 ) ) ;
#367 = ORIENTED_EDGE ( 'NONE', *, *, #112, .T. ) ;
#368 = CIRCLE ( 'NONE', #23, 8.750000000000000000 ) ;
#369 = DIRECTION ( 'NONE',  ( 1.119176436114070564E-16, 1.000000000000000000, 0.000000000000000000 ) ) ;
#370 = AXIS2_PLACEMENT_3D ( 'NONE', #459, #187, #400 ) ;
#371 = VECTOR ( 'NONE', #448, 1000.000000000000114 ) ;
#372 = EDGE_LOOP ( 'NONE', ( #44, #200, #395, #43 ) ) ;
#373 = CARTESIAN_POINT ( 'NONE',  ( 7.999999999999996447, 17.99999999999999289, 40.00000000000000000 ) ) ;
#374 = FACE_OUTER_BOUND ( 'NONE', #455, .T. ) ;
#375 = ORIENTED_EDGE ( 'NONE', *, *, #523, .F. ) ;
#376 = CARTESIAN_POINT ( 'NONE',  ( 55.97192129817769057, -6.938893903907228378E-15, 12.98525868154327156 ) ) ;
#377 = DIRECTION ( 'NONE',  ( -1.000000000000000000, 0.000000000000000000, 0.000000000000000000 ) ) ;
#378 = VERTEX_POINT ( 'NONE', #305 ) ;
#379 = LINE ( 'NONE', #510, #84 ) ;
#380 = APPLICATION_PROTOCOL_DEFINITION ( 'draft international standard', 'automotive_design', 1998, #485 ) ;
#381 = ORIENTED_EDGE ( 'NONE', *, *, #243, .T. ) ;
#382 = EDGE_CURVE ( 'NONE', #548, #140, #478, .T. ) ;
#383 = EDGE_CURVE ( 'NONE', #140, #422, #493, .T. ) ;
#384 = CARTESIAN_POINT ( 'NONE',  ( 8.000000000000001776, 80.00000000000000000, 40.00000000000000000 ) ) ;
#385 = SHAPE_DEFINITION_REPRESENTATION ( #565, #341 ) ;
#386 = ORIENTED_EDGE ( 'NONE', *, *, #520, .F. ) ;
#387 = DIRECTION ( 'NONE',  ( -1.119176436114070318E-16, -1.000000000000000000, 0.000000000000000000 ) ) ;
#388 = CYLINDRICAL_SURFACE ( 'NONE', #439, 8.750000000000000000 ) ;
#389 = LINE ( 'NONE', #512, #315 ) ;
#390 = DIRECTION ( 'NONE',  ( 0.000000000000000000, -0.000000000000000000, 1.000000000000000000 ) ) ;
#391 = DIRECTION ( 'NONE',  ( -1.119176436114070318E-16, 1.000000000000000000, -0.000000000000000000 ) ) ;
#392 = VECTOR ( 'NONE', #34, 1000.000000000000000 ) ;
#393 = DIRECTION ( 'NONE',  ( -1.119176436114070318E-16, 1.000000000000000000, -0.000000000000000000 ) ) ;
#394 = DIRECTION ( 'NONE',  ( -0.000000000000000000, -0.000000000000000000, -1.000000000000000000 ) ) ;
#395 = ORIENTED_EDGE ( 'NONE', *, *, #270, .F. ) ;
#396 = AXIS2_PLACEMENT_3D ( 'NONE', #433, #514, #18 ) ;
#397 = LINE ( 'NONE', #127, #462 ) ;
#398 = VECTOR ( 'NONE', #175, 1000.000000000000000 ) ;
#399 = AXIS2_PLACEMENT_3D ( 'NONE', #503, #8, #52 ) ;
#400 = DIRECTION ( 'NONE',  ( 1.000000000000000000, 1.119176436114070318E-16, 0.000000000000000000 ) ) ;
#401 = ORIENTED_EDGE ( 'NONE', *, *, #256, .F. ) ;
#402 = DIRECTION ( 'NONE',  ( -0.7638387459731335039, -8.288829389654516289E-17, 0.6454071351869227202 ) ) ;
#403 = ORIENTED_EDGE ( 'NONE', *, *, #472, .T. ) ;
#404 = EDGE_CURVE ( 'NONE', #67, #378, #90, .T. ) ;
#405 = EDGE_LOOP ( 'NONE', ( #57, #25 ) ) ;
#406 = CARTESIAN_POINT ( 'NONE',  ( 45.00000000000000711, -3.469446951953614189E-15, 0.000000000000000000 ) ) ;
#407 = ORIENTED_EDGE ( 'NONE', *, *, #249, .T. ) ;
#408 = VECTOR ( 'NONE', #37, 1000.000000000000000 ) ;
#409 = CARTESIAN_POINT ( 'NONE',  ( 0.000000000000000000, 0.000000000000000000, -40.00000000000000000 ) ) ;
#410 = VERTEX_POINT ( 'NONE', #312 ) ;
#411 = EDGE_CURVE ( 'NONE', #508, #337, #264, .T. ) ;
#412 = VECTOR ( 'NONE', #149, 1000.000000000000000 ) ;
#413 = DIRECTION ( 'NONE',  ( -0.000000000000000000, -1.000000000000000000, -0.000000000000000000 ) ) ;
#414 = PLANE ( 'NONE',  #399 ) ;
#415 = VERTEX_POINT ( 'NONE', #490 ) ;
#416 = CARTESIAN_POINT ( 'NONE',  ( 8.000000000000001776, 80.00000000000000000, -40.00000000000000000 ) ) ;
#417 = DIRECTION ( 'NONE',  ( 1.000000000000000000, -1.119176436114070318E-16, -0.000000000000000000 ) ) ;
#418 = VECTOR ( 'NONE', #402, 1000.000000000000000 ) ;
#419 = VERTEX_POINT ( 'NONE', #316 ) ;
#420 = CARTESIAN_POINT ( 'NONE',  ( -5.204170427930421283E-15, 45.00000000000000711, 0.000000000000000000 ) ) ;
#421 = CARTESIAN_POINT ( 'NONE',  ( 9.389626173925006416E-16, 80.00000000000000000, 40.00000000000000000 ) ) ;
#422 = VERTEX_POINT ( 'NONE', #142 ) ;
#423 = DIRECTION ( 'NONE',  ( 1.000000000000000000, 0.000000000000000000, 0.000000000000000000 ) ) ;
#424 = VECTOR ( 'NONE', #118, 1000.000000000000000 ) ;
#425 = EDGE_CURVE ( 'NONE', #153, #489, #16, .T. ) ;
#426 = ORIENTED_EDGE ( 'NONE', *, *, #451, .F. ) ;
#427 = CARTESIAN_POINT ( 'NONE',  ( 7.999999999999994671, 18.00000000000006395, -40.00000000000000000 ) ) ;
#428 = VERTEX_POINT ( 'NONE', #136 ) ;
#429 = VECTOR ( 'NONE', #497, 1000.000000000000000 ) ;
#430 = DIRECTION ( 'NONE',  ( 1.000000000000000000, -1.119176436114070318E-16, 0.000000000000000000 ) ) ;
#431 = FACE_BOUND ( 'NONE', #20, .T. ) ;
#432 = ADVANCED_FACE ( 'NONE', ( #94 ), #188, .F. ) ;
#433 = CARTESIAN_POINT ( 'NONE',  ( 22.17044744974455739, 7.999999999999992895, 35.00000000000000000 ) ) ;
#434 = PLANE ( 'NONE',  #509 ) ;
#435 = DIRECTION ( 'NONE',  ( 1.119176436114070318E-16, 1.000000000000000000, 0.000000000000000000 ) ) ;
#436 = VECTOR ( 'NONE', #201, 1000.000000000000000 ) ;
#437 = DIRECTION ( 'NONE',  ( -1.000000000000000000, -1.119176436114070564E-16, 0.000000000000000000 ) ) ;
#438 = CARTESIAN_POINT ( 'NONE',  ( 7.999999999999994671, 18.00000000000006395, 40.00000000000000000 ) ) ;
#439 = AXIS2_PLACEMENT_3D ( 'NONE', #165, #215, #303 ) ;
#440 = FILL_AREA_STYLE ('',( #254 ) ) ;
#441 = CARTESIAN_POINT ( 'NONE',  ( 45.00000000000000711, -8.673617379884035472E-15, 0.000000000000000000 ) ) ;
#442 =( NAMED_UNIT ( * ) SI_UNIT ( $, .STERADIAN. ) SOLID_ANGLE_UNIT ( ) );
#443 = AXIS2_PLACEMENT_3D ( 'NONE', #38, #413, #545 ) ;
#444 = LINE ( 'NONE', #97, #418 ) ;
#445 = ORIENTED_EDGE ( 'NONE', *, *, #112, .F. ) ;
#446 = PRODUCT_RELATED_PRODUCT_CATEGORY ( 'part', '', ( #285 ) ) ;
#447 = EDGE_LOOP ( 'NONE', ( #267, #386, #269, #407 ) ) ;
#448 = DIRECTION ( 'NONE',  ( 0.7638387459731332818, 8.288829389654513824E-17, 0.6454071351869230533 ) ) ;
#449 = VERTEX_POINT ( 'NONE', #460 ) ;
#450 = CARTESIAN_POINT ( 'NONE',  ( 55.97192129817769057, -6.938893903907228378E-15, 12.98525868154327156 ) ) ;
#451 = EDGE_CURVE ( 'NONE', #134, #537, #319, .T. ) ;
#452 = VERTEX_POINT ( 'NONE', #92 ) ;
#453 = LINE ( 'NONE', #241, #336 ) ;
#454 = DIRECTION ( 'NONE',  ( -1.000000000000000000, -1.982541115402065356E-16, 0.000000000000000000 ) ) ;
#455 = EDGE_LOOP ( 'NONE', ( #170, #61, #556, #511 ) ) ;
#456 = DIRECTION ( 'NONE',  ( -1.119176436114070318E-16, 1.000000000000000000, 0.000000000000000000 ) ) ;
#457 = LINE ( 'NONE', #450, #70 ) ;
#458 = EDGE_LOOP ( 'NONE', ( #221, #203 ) ) ;
#459 = CARTESIAN_POINT ( 'NONE',  ( 80.00000000000000000, 8.000000000000000000, 40.00000000000000000 ) ) ;
#460 = CARTESIAN_POINT ( 'NONE',  ( 8.000000000000000000, 53.75000000000000711, 0.000000000000000000 ) ) ;
#461 = ORIENTED_EDGE ( 'NONE', *, *, #527, .F. ) ;
#462 = VECTOR ( 'NONE', #568, 1000.000000000000114 ) ;
#463 = CARTESIAN_POINT ( 'NONE',  ( -6.183449809530233292E-15, 36.25000000000000711, 1.071565949253934913E-15 ) ) ;
#464 = EDGE_CURVE ( 'NONE', #189, #534, #268, .T. ) ;
#465 = FACE_OUTER_BOUND ( 'NONE', #286, .T. ) ;
#466 = ORIENTED_EDGE ( 'NONE', *, *, #292, .F. ) ;
#467 = DIRECTION ( 'NONE',  ( 1.982541115402065356E-16, 1.000000000000000000, 0.000000000000000000 ) ) ;
#468 = ORIENTED_EDGE ( 'NONE', *, *, #558, .T. ) ;
#469 = DIRECTION ( 'NONE',  ( -1.000000000000000000, -1.119176436114070318E-16, 0.000000000000000000 ) ) ;
#470 = VECTOR ( 'NONE', #42, 1000.000000000000000 ) ;
#471 = EDGE_LOOP ( 'NONE', ( #311, #483, #227, #17, #426, #401, #5 ) ) ;
#472 = EDGE_CURVE ( 'NONE', #415, #225, #351, .T. ) ;
#473 = AXIS2_PLACEMENT_3D ( 'NONE', #284, #184, #235 ) ;
#474 = CYLINDRICAL_SURFACE ( 'NONE', #22, 9.999999999999998224 ) ;
#475 = FACE_OUTER_BOUND ( 'NONE', #53, .T. ) ;
#476 = LINE ( 'NONE', #427, #115 ) ;
#477 = CARTESIAN_POINT ( 'NONE',  ( 53.75000000000000711, -2.490167570353802180E-15, 1.071565949253934519E-15 ) ) ;
#478 = LINE ( 'NONE', #33, #12 ) ;
#479 = DIRECTION ( 'NONE',  ( -1.000000000000000000, -1.119176436114070564E-16, 0.000000000000000000 ) ) ;
#480 = ADVANCED_FACE ( 'NONE', ( #374 ), #414, .F. ) ;
#481 = CIRCLE ( 'NONE', #81, 16.99999999999999289 ) ;
#482 = CARTESIAN_POINT ( 'NONE',  ( 7.999999999999996447, 36.25000000000000711, 1.071565949253934913E-15 ) ) ;
#483 = ORIENTED_EDGE ( 'NONE', *, *, #224, .T. ) ;
#484 =( NAMED_UNIT ( * ) PLANE_ANGLE_UNIT ( ) SI_UNIT ( $, .RADIAN. ) );
#485 = APPLICATION_CONTEXT ( 'automotive_design' ) ;
#486 = ORIENTED_EDGE ( 'NONE', *, *, #383, .F. ) ;
#487 = CARTESIAN_POINT ( 'NONE',  ( 22.17044744974455739, 17.99999999999999289, 40.00000000000000000 ) ) ;
#488 = ORIENTED_EDGE ( 'NONE', *, *, #411, .T. ) ;
#489 = VERTEX_POINT ( 'NONE', #223 ) ;
#490 = CARTESIAN_POINT ( 'NONE',  ( 36.25000000000000711, 7.999999999999994671, 0.000000000000000000 ) ) ;
#491 = ORIENTED_EDGE ( 'NONE', *, *, #164, .F. ) ;
#492 = CIRCLE ( 'NONE', #566, 8.750000000000000000 ) ;
#493 = LINE ( 'NONE', #421, #299 ) ;
#494 = VERTEX_POINT ( 'NONE', #60 ) ;
#495 = CARTESIAN_POINT ( 'NONE',  ( 22.17044744974455384, -1.061310006614867734E-14, -35.00000000000000000 ) ) ;
#496 = VECTOR ( 'NONE', #366, 1000.000000000000000 ) ;
#497 = DIRECTION ( 'NONE',  ( -0.000000000000000000, -0.000000000000000000, -1.000000000000000000 ) ) ;
#498 = ORIENTED_EDGE ( 'NONE', *, *, #224, .F. ) ;
#499 = CARTESIAN_POINT ( 'NONE',  ( 25.39748312567916955, -1.025669236637609231E-14, -38.81919372986566685 ) ) ;
#500 = CARTESIAN_POINT ( 'NONE',  ( 24.00000000000006395, -1.040834085586084257E-14, 40.00000000000000000 ) ) ;
#501 = ORIENTED_EDGE ( 'NONE', *, *, #451, .T. ) ;
#502 = FACE_OUTER_BOUND ( 'NONE', #296, .T. ) ;
#503 = CARTESIAN_POINT ( 'NONE',  ( 24.00000000000006395, -1.040834085586084257E-14, -40.00000000000000000 ) ) ;
#504 = ORIENTED_EDGE ( 'NONE', *, *, #4, .F. ) ;
#505 = VECTOR ( 'NONE', #332, 1000.000000000000000 ) ;
#506 = LINE ( 'NONE', #518, #505 ) ;
#507 = DIRECTION ( 'NONE',  ( -1.000000000000000000, 0.000000000000000000, 0.000000000000000000 ) ) ;
#508 = VERTEX_POINT ( 'NONE', #102 ) ;
#509 = AXIS2_PLACEMENT_3D ( 'NONE', #29, #345, #348 ) ;
#510 = CARTESIAN_POINT ( 'NONE',  ( -4.224891046330609274E-15, 53.75000000000000711, 0.000000000000000000 ) ) ;
#511 = ORIENTED_EDGE ( 'NONE', *, *, #249, .F. ) ;
#512 = CARTESIAN_POINT ( 'NONE',  ( 80.00000000000000000, 8.000000000000000000, -40.00000000000000000 ) ) ;
#513 = ORIENTED_EDGE ( 'NONE', *, *, #464, .T. ) ;
#514 = DIRECTION ( 'NONE',  ( -1.119176436114070318E-16, 1.000000000000000000, -0.000000000000000000 ) ) ;
#515 = PRESENTATION_LAYER_ASSIGNMENT (  '', '', ( #39 ) ) ;
#516 = CARTESIAN_POINT ( 'NONE',  ( 22.17044744974455739, 17.99999999999999289, 35.00000000000000000 ) ) ;
#517 = AXIS2_PLACEMENT_3D ( 'NONE', #98, #278, #13 ) ;
#518 = CARTESIAN_POINT ( 'NONE',  ( 36.25000000000000711, -4.448726333553426198E-15, 0.000000000000000000 ) ) ;
#519 = CARTESIAN_POINT ( 'NONE',  ( 45.00000000000000711, -3.469446951953614189E-15, 0.000000000000000000 ) ) ;
#520 = EDGE_CURVE ( 'NONE', #153, #378, #457, .T. ) ;
#521 = DIRECTION ( 'NONE',  ( -1.000000000000000000, 0.000000000000000000, 0.000000000000000000 ) ) ;
#522 = DIRECTION ( 'NONE',  ( -1.000000000000000000, -1.119176436114070564E-16, 0.000000000000000000 ) ) ;
#523 = EDGE_CURVE ( 'NONE', #100, #428, #342, .T. ) ;
#524 = LINE ( 'NONE', #120, #408 ) ;
#525 = FACE_OUTER_BOUND ( 'NONE', #447, .T. ) ;
#526 = ORIENTED_EDGE ( 'NONE', *, *, #54, .T. ) ;
#527 = EDGE_CURVE ( 'NONE', #552, #508, #362, .T. ) ;
#528 = DIRECTION ( 'NONE',  ( 1.000000000000000000, 1.119176436114071057E-16, 0.000000000000000000 ) ) ;
#529 = ORIENTED_EDGE ( 'NONE', *, *, #425, .T. ) ;
#530 = CIRCLE ( 'NONE', #217, 4.999999999999997335 ) ;
#531 = SURFACE_STYLE_USAGE ( .BOTH. , #126 ) ;
#532 = ORIENTED_EDGE ( 'NONE', *, *, #404, .F. ) ;
#533 = AXIS2_PLACEMENT_3D ( 'NONE', #441, #393, #437 ) ;
#534 = VERTEX_POINT ( 'NONE', #105 ) ;
#535 = CARTESIAN_POINT ( 'NONE',  ( 18.00000000000006395, 7.999999999999992895, 40.00000000000000000 ) ) ;
#536 = PRODUCT_DEFINITION_CONTEXT ( 'detailed design', #119, 'design' ) ;
#537 = VERTEX_POINT ( 'NONE', #232 ) ;
#538 = DIRECTION ( 'NONE',  ( -1.119176436114070318E-16, 1.000000000000000000, -0.000000000000000000 ) ) ;
#539 = ORIENTED_EDGE ( 'NONE', *, *, #523, .T. ) ;
#540 = CIRCLE ( 'NONE', #190, 8.750000000000000000 ) ;
#541 = CARTESIAN_POINT ( 'NONE',  ( 25.39748312567916955, 7.999999999999994671, -38.81919372986566685 ) ) ;
#542 = VECTOR ( 'NONE', #329, 1000.000000000000000 ) ;
#543 = CARTESIAN_POINT ( 'NONE',  ( 45.00000000000000711, 7.999999999999996447, 0.000000000000000000 ) ) ;
#544 = ORIENTED_EDGE ( 'NONE', *, *, #346, .T. ) ;
#545 = DIRECTION ( 'NONE',  ( 0.000000000000000000, 0.000000000000000000, 1.000000000000000000 ) ) ;
#546 = FACE_OUTER_BOUND ( 'NONE', #95, .T. ) ;
#547 = ADVANCED_FACE ( 'NONE', ( #546 ), #138, .F. ) ;
#548 = VERTEX_POINT ( 'NONE', #48 ) ;
#549 = FACE_OUTER_BOUND ( 'NONE', #363, .T. ) ;
#550 = ORIENTED_EDGE ( 'NONE', *, *, #364, .F. ) ;
#551 = CARTESIAN_POINT ( 'NONE',  ( -5.204170427930421283E-15, 45.00000000000000711, 0.000000000000000000 ) ) ;
#552 = VERTEX_POINT ( 'NONE', #226 ) ;
#553 = EDGE_CURVE ( 'NONE', #290, #494, #326, .T. ) ;
#554 = AXIS2_PLACEMENT_3D ( 'NONE', #519, #77, #257 ) ;
#555 = DIRECTION ( 'NONE',  ( 0.000000000000000000, -0.000000000000000000, -1.000000000000000000 ) ) ;
#556 = ORIENTED_EDGE ( 'NONE', *, *, #4, .T. ) ;
#557 = CARTESIAN_POINT ( 'NONE',  ( -5.204170427930421283E-15, 45.00000000000000711, 0.000000000000000000 ) ) ;
#558 = EDGE_CURVE ( 'NONE', #130, #337, #6, .T. ) ;
#559 = CARTESIAN_POINT ( 'NONE',  ( 0.000000000000000000, 0.000000000000000000, 40.00000000000000000 ) ) ;
#560 = CYLINDRICAL_SURFACE ( 'NONE', #139, 8.750000000000000000 ) ;
#561 = DIRECTION ( 'NONE',  ( -1.119176436114070318E-16, 1.000000000000000000, 0.000000000000000000 ) ) ;
#562 = ORIENTED_EDGE ( 'NONE', *, *, #31, .T. ) ;
#563 = CARTESIAN_POINT ( 'NONE',  ( 0.000000000000000000, 0.000000000000000000, 40.00000000000000000 ) ) ;
#564 = DIRECTION ( 'NONE',  ( 1.000000000000000000, -1.119176436114070318E-16, -0.000000000000000000 ) ) ;
#565 = PRODUCT_DEFINITION_SHAPE ( 'NONE', 'NONE',  #197 ) ;
#566 = AXIS2_PLACEMENT_3D ( 'NONE', #335, #207, #237 ) ;
#567 = CARTESIAN_POINT ( 'NONE',  ( 55.97192129817769057, 7.999999999999998224, -12.98525868154326091 ) ) ;
#568 = DIRECTION ( 'NONE',  ( 0.7638387459731332818, 8.288829389654513824E-17, 0.6454071351869230533 ) ) ;
#569 = AXIS2_PLACEMENT_3D ( 'NONE', #15, #218, #273 ) ;
#570 = AXIS2_PLACEMENT_3D ( 'NONE', #271, #417, #369 ) ;
#571 = ADVANCED_FACE ( 'NONE', ( #465 ), #19, .F. ) ;
#572 = LINE ( 'NONE', #55, #398 ) ;
#573 = ORIENTED_EDGE ( 'NONE', *, *, #50, .T. ) ;
#574 = ORIENTED_EDGE ( 'NONE', *, *, #364, .T. ) ;
ENDSEC;
END-ISO-10303-21;
