ISO-10303-21;
HEADER;
FILE_DESCRIPTION (( 'STEP AP214' ),
    '1' );
FILE_NAME ('S235JR Winkelstahl.SLDPRT.STEP',
    '2026-09-13T14:06:35',
    ( '' ),
    ( '' ),
    'SwSTEP 2.0',
    'SolidWorks 2025',
    '' );
FILE_SCHEMA (( 'AUTOMOTIVE_DESIGN' ));
ENDSEC;

DATA;
#1 = ADVANCED_BREP_SHAPE_REPRESENTATION ( 'S235JR Winkelstahl.SLDPRT', ( #380, #371 ), #76 ) ;
#2 = DIRECTION ( 'NONE',  ( -1.119176436114070318E-16, 1.000000000000000000, -0.000000000000000000 ) ) ;
#3 = DIRECTION ( 'NONE',  ( -1.173703271740625710E-17, -1.000000000000000000, 0.000000000000000000 ) ) ;
#4 = SURFACE_SIDE_STYLE ('',( #165 ) ) ;
#5 = EDGE_CURVE ( 'NONE', #124, #330, #17, .T. ) ;
#6 = DIRECTION ( 'NONE',  ( -1.119176436114070318E-16, 1.000000000000000000, 0.000000000000000000 ) ) ;
#7 = LINE ( 'NONE', #202, #294 ) ;
#8 = DIRECTION ( 'NONE',  ( -1.173703271740625710E-17, -1.000000000000000000, 0.000000000000000000 ) ) ;
#9 = APPLICATION_PROTOCOL_DEFINITION ( 'draft international standard', 'automotive_design', 1998, #74 ) ;
#10 = LINE ( 'NONE', #208, #262 ) ;
#11 = AXIS2_PLACEMENT_3D ( 'NONE', #320, #347, #23 ) ;
#12 = DIRECTION ( 'NONE',  ( -1.000000000000000000, -1.982541115402065356E-16, 0.000000000000000000 ) ) ;
#13 = LINE ( 'NONE', #419, #289 ) ;
#14 = VECTOR ( 'NONE', #341, 1000.000000000000000 ) ;
#15 = EDGE_CURVE ( 'NONE', #252, #196, #10, .T. ) ;
#16 = FACE_OUTER_BOUND ( 'NONE', #113, .T. ) ;
#17 = CIRCLE ( 'NONE', #249, 8.750000000000000000 ) ;
#18 = CIRCLE ( 'NONE', #263, 8.750000000000000000 ) ;
#19 = DIRECTION ( 'NONE',  ( -0.000000000000000000, -0.000000000000000000, -1.000000000000000000 ) ) ;
#20 = CARTESIAN_POINT ( 'NONE',  ( 0.000000000000000000, 0.000000000000000000, 40.00000000000000000 ) ) ;
#21 = ORIENTED_EDGE ( 'NONE', *, *, #387, .F. ) ;
#22 = AXIS2_PLACEMENT_3D ( 'NONE', #296, #60, #361 ) ;
#23 = DIRECTION ( 'NONE',  ( 1.000000000000000000, 1.119176436114070318E-16, 0.000000000000000000 ) ) ;
#24 = ORIENTED_EDGE ( 'NONE', *, *, #29, .T. ) ;
#25 = CARTESIAN_POINT ( 'NONE',  ( -4.224891046330609274E-15, 53.75000000000000711, 0.000000000000000000 ) ) ;
#26 = ORIENTED_EDGE ( 'NONE', *, *, #373, .T. ) ;
#27 = EDGE_LOOP ( 'NONE', ( #235, #176, #395, #26 ) ) ;
#28 = VECTOR ( 'NONE', #88, 1000.000000000000000 ) ;
#29 = EDGE_CURVE ( 'NONE', #239, #330, #411, .T. ) ;
#30 = EDGE_LOOP ( 'NONE', ( #180, #226, #416, #56, #223, #293, #213 ) ) ;
#31 = AXIS2_PLACEMENT_3D ( 'NONE', #206, #404, #166 ) ;
#32 = CIRCLE ( 'NONE', #297, 9.999999999999998224 ) ;
#33 = ORIENTED_EDGE ( 'NONE', *, *, #410, .T. ) ;
#34 = PLANE ( 'NONE',  #156 ) ;
#35 = DIRECTION ( 'NONE',  ( -1.000000000000000000, -1.119176436114070318E-16, 0.000000000000000000 ) ) ;
#36 = ORIENTED_EDGE ( 'NONE', *, *, #387, .T. ) ;
#37 = EDGE_CURVE ( 'NONE', #99, #124, #340, .T. ) ;
#38 = DIRECTION ( 'NONE',  ( 1.000000000000000000, 0.000000000000000000, 0.000000000000000000 ) ) ;
#39 = CARTESIAN_POINT ( 'NONE',  ( 8.000000000000001776, 80.00000000000000000, 40.00000000000000000 ) ) ;
#40 = DIRECTION ( 'NONE',  ( -0.000000000000000000, -0.000000000000000000, -1.000000000000000000 ) ) ;
#41 = AXIS2_PLACEMENT_3D ( 'NONE', #392, #345, #414 ) ;
#42 = DIRECTION ( 'NONE',  ( -0.000000000000000000, -0.000000000000000000, -1.000000000000000000 ) ) ;
#43 = EDGE_CURVE ( 'NONE', #295, #118, #149, .T. ) ;
#44 = CARTESIAN_POINT ( 'NONE',  ( 36.25000000000000711, -4.448726333553426198E-15, 0.000000000000000000 ) ) ;
#45 = PLANE ( 'NONE',  #57 ) ;
#46 = CYLINDRICAL_SURFACE ( 'NONE', #216, 8.750000000000000000 ) ;
#47 = CARTESIAN_POINT ( 'NONE',  ( 9.389626173925006416E-16, 80.00000000000000000, 40.00000000000000000 ) ) ;
#48 = ADVANCED_FACE ( 'NONE', ( #246 ), #45, .F. ) ;
#49 = FACE_OUTER_BOUND ( 'NONE', #61, .T. ) ;
#50 = VECTOR ( 'NONE', #167, 1000.000000000000000 ) ;
#51 = EDGE_CURVE ( 'NONE', #99, #239, #178, .T. ) ;
#52 = CARTESIAN_POINT ( 'NONE',  ( 7.999999999999996447, 36.25000000000000711, 1.071565949253934913E-15 ) ) ;
#53 = FACE_OUTER_BOUND ( 'NONE', #85, .T. ) ;
#54 = EDGE_LOOP ( 'NONE', ( #154, #357 ) ) ;
#55 = FACE_BOUND ( 'NONE', #54, .T. ) ;
#56 = ORIENTED_EDGE ( 'NONE', *, *, #397, .F. ) ;
#57 = AXIS2_PLACEMENT_3D ( 'NONE', #130, #75, #105 ) ;
#58 = ORIENTED_EDGE ( 'NONE', *, *, #286, .F. ) ;
#59 = EDGE_CURVE ( 'NONE', #319, #355, #163, .T. ) ;
#60 = DIRECTION ( 'NONE',  ( -0.000000000000000000, 0.000000000000000000, -1.000000000000000000 ) ) ;
#61 = EDGE_LOOP ( 'NONE', ( #266, #434, #21, #267 ) ) ;
#62 = ORIENTED_EDGE ( 'NONE', *, *, #191, .T. ) ;
#63 = DIRECTION ( 'NONE',  ( 1.982541115402065356E-16, 1.000000000000000000, 0.000000000000000000 ) ) ;
#64 = VECTOR ( 'NONE', #243, 1000.000000000000000 ) ;
#65 = EDGE_CURVE ( 'NONE', #66, #400, #133, .T. ) ;
#66 = VERTEX_POINT ( 'NONE', #247 ) ;
#67 = ORIENTED_EDGE ( 'NONE', *, *, #51, .T. ) ;
#68 = LINE ( 'NONE', #301, #106 ) ;
#69 = AXIS2_PLACEMENT_3D ( 'NONE', #237, #303, #240 ) ;
#70 = FACE_OUTER_BOUND ( 'NONE', #349, .T. ) ;
#71 = VECTOR ( 'NONE', #137, 1000.000000000000000 ) ;
#72 = VECTOR ( 'NONE', #35, 1000.000000000000000 ) ;
#73 = ORIENTED_EDGE ( 'NONE', *, *, #346, .T. ) ;
#74 = APPLICATION_CONTEXT ( 'automotive_design' ) ;
#75 = DIRECTION ( 'NONE',  ( -1.000000000000000000, 0.000000000000000000, 0.000000000000000000 ) ) ;
#76 =( GEOMETRIC_REPRESENTATION_CONTEXT ( 3 ) GLOBAL_UNCERTAINTY_ASSIGNED_CONTEXT ( ( #254 ) ) GLOBAL_UNIT_ASSIGNED_CONTEXT ( ( #378, #332, #131 ) ) REPRESENTATION_CONTEXT ( 'NONE', 'WORKASPACE' ) );
#77 = CARTESIAN_POINT ( 'NONE',  ( 8.000000000000000000, 53.75000000000000711, 0.000000000000000000 ) ) ;
#78 = DIRECTION ( 'NONE',  ( 1.000000000000000000, -1.119176436114070318E-16, -0.000000000000000000 ) ) ;
#79 = AXIS2_PLACEMENT_3D ( 'NONE', #147, #115, #314 ) ;
#80 = DIRECTION ( 'NONE',  ( 1.173703271740625710E-17, 1.000000000000000000, 0.000000000000000000 ) ) ;
#81 = CARTESIAN_POINT ( 'NONE',  ( 18.00000000000006395, 7.999999999999992895, 40.00000000000000000 ) ) ;
#82 = ORIENTED_EDGE ( 'NONE', *, *, #132, .F. ) ;
#83 = CARTESIAN_POINT ( 'NONE',  ( 0.000000000000000000, 0.000000000000000000, 40.00000000000000000 ) ) ;
#84 = VECTOR ( 'NONE', #251, 1000.000000000000000 ) ;
#85 = EDGE_LOOP ( 'NONE', ( #151, #399, #232, #299 ) ) ;
#86 = CARTESIAN_POINT ( 'NONE',  ( 9.389626173925006416E-16, 80.00000000000000000, 40.00000000000000000 ) ) ;
#87 = ORIENTED_EDGE ( 'NONE', *, *, #91, .T. ) ;
#88 = DIRECTION ( 'NONE',  ( -0.000000000000000000, -0.000000000000000000, -1.000000000000000000 ) ) ;
#89 = ORIENTED_EDGE ( 'NONE', *, *, #191, .F. ) ;
#90 = ORIENTED_EDGE ( 'NONE', *, *, #91, .F. ) ;
#91 = EDGE_CURVE ( 'NONE', #319, #66, #307, .T. ) ;
#92 = ORIENTED_EDGE ( 'NONE', *, *, #425, .T. ) ;
#93 = PRODUCT ( 'S235JR Winkelstahl.SLDPRT', 'S235JR Winkelstahl.SLDPRT', '', ( #127 ) ) ;
#94 = VERTEX_POINT ( 'NONE', #244 ) ;
#95 = COLOUR_RGB ( '',0.7921568627450980005, 0.8196078431372548767, 0.9333333333333333481 ) ;
#96 = DIRECTION ( 'NONE',  ( -1.000000000000000000, 1.119176436114070318E-16, 0.000000000000000000 ) ) ;
#97 = ORIENTED_EDGE ( 'NONE', *, *, #391, .F. ) ;
#98 = LINE ( 'NONE', #304, #50 ) ;
#99 = VERTEX_POINT ( 'NONE', #134 ) ;
#100 = FACE_OUTER_BOUND ( 'NONE', #170, .T. ) ;
#101 = DIRECTION ( 'NONE',  ( 1.000000000000000000, -1.119176436114070318E-16, -0.000000000000000000 ) ) ;
#102 = DIRECTION ( 'NONE',  ( -1.000000000000000000, 0.000000000000000000, 0.000000000000000000 ) ) ;
#103 = DIRECTION ( 'NONE',  ( -1.000000000000000000, -1.119176436114070564E-16, 0.000000000000000000 ) ) ;
#104 = DIRECTION ( 'NONE',  ( 0.000000000000000000, 0.000000000000000000, 1.000000000000000000 ) ) ;
#105 = DIRECTION ( 'NONE',  ( 0.000000000000000000, 0.000000000000000000, 1.000000000000000000 ) ) ;
#106 = VECTOR ( 'NONE', #40, 1000.000000000000000 ) ;
#107 = CARTESIAN_POINT ( 'NONE',  ( 53.75000000000000711, 7.999999999999998224, 1.071565949253934913E-15 ) ) ;
#108 = AXIS2_PLACEMENT_3D ( 'NONE', #342, #310, #139 ) ;
#109 = DIRECTION ( 'NONE',  ( 1.000000000000000000, -1.119176436114070318E-16, -0.000000000000000000 ) ) ;
#110 = AXIS2_PLACEMENT_3D ( 'NONE', #86, #420, #80 ) ;
#111 = ORIENTED_EDGE ( 'NONE', *, *, #397, .T. ) ;
#112 = CARTESIAN_POINT ( 'NONE',  ( 9.389626173925006416E-16, 80.00000000000000000, -40.00000000000000000 ) ) ;
#113 = EDGE_LOOP ( 'NONE', ( #302, #427, #366, #126 ) ) ;
#114 = LINE ( 'NONE', #116, #383 ) ;
#115 = DIRECTION ( 'NONE',  ( 0.000000000000000000, 1.000000000000000000, 0.000000000000000000 ) ) ;
#116 = CARTESIAN_POINT ( 'NONE',  ( -6.183449809530233292E-15, 36.25000000000000711, 1.071565949253934519E-15 ) ) ;
#117 = EDGE_CURVE ( 'NONE', #239, #99, #171, .T. ) ;
#118 = VERTEX_POINT ( 'NONE', #77 ) ;
#119 = ORIENTED_EDGE ( 'NONE', *, *, #65, .T. ) ;
#120 = VECTOR ( 'NONE', #169, 1000.000000000000000 ) ;
#121 = ORIENTED_EDGE ( 'NONE', *, *, #43, .T. ) ;
#122 = ADVANCED_FACE ( 'NONE', ( #70 ), #382, .F. ) ;
#123 = CARTESIAN_POINT ( 'NONE',  ( 7.999999999999998224, 45.00000000000000711, 0.000000000000000000 ) ) ;
#124 = VERTEX_POINT ( 'NONE', #107 ) ;
#125 = LINE ( 'NONE', #195, #64 ) ;
#126 = ORIENTED_EDGE ( 'NONE', *, *, #29, .F. ) ;
#127 = PRODUCT_CONTEXT ( 'NONE', #74, 'mechanical' ) ;
#128 = AXIS2_PLACEMENT_3D ( 'NONE', #282, #290, #417 ) ;
#129 = CARTESIAN_POINT ( 'NONE',  ( 7.999999999999996447, 17.99999999999999289, 40.00000000000000000 ) ) ;
#130 = CARTESIAN_POINT ( 'NONE',  ( 80.00000000000000000, 0.000000000000000000, 40.00000000000000000 ) ) ;
#131 =( NAMED_UNIT ( * ) SI_UNIT ( $, .STERADIAN. ) SOLID_ANGLE_UNIT ( ) );
#132 = EDGE_CURVE ( 'NONE', #221, #319, #32, .T. ) ;
#133 = LINE ( 'NONE', #279, #356 ) ;
#134 = CARTESIAN_POINT ( 'NONE',  ( 53.75000000000000711, -2.490167570353801786E-15, 1.071565949253934913E-15 ) ) ;
#135 = ADVANCED_FACE ( 'NONE', ( #100 ), #46, .F. ) ;
#136 = CARTESIAN_POINT ( 'NONE',  ( 0.000000000000000000, 0.000000000000000000, 0.000000000000000000 ) ) ;
#137 = DIRECTION ( 'NONE',  ( -1.119176436114070318E-16, 1.000000000000000000, -0.000000000000000000 ) ) ;
#138 = EDGE_CURVE ( 'NONE', #362, #327, #337, .T. ) ;
#139 = DIRECTION ( 'NONE',  ( -1.000000000000000000, -1.119176436114070564E-16, 0.000000000000000000 ) ) ;
#140 = UNCERTAINTY_MEASURE_WITH_UNIT (LENGTH_MEASURE( 1.000000000000000082E-05 ), #153, 'distance_accuracy_value', 'NONE');
#141 = CIRCLE ( 'NONE', #275, 8.750000000000000000 ) ;
#142 = DIRECTION ( 'NONE',  ( -1.000000000000000000, 0.000000000000000000, 0.000000000000000000 ) ) ;
#143 = CARTESIAN_POINT ( 'NONE',  ( 18.00000000000006395, 7.999999999999992895, 40.00000000000000000 ) ) ;
#144 = CYLINDRICAL_SURFACE ( 'NONE', #41, 8.750000000000000000 ) ;
#145 = EDGE_CURVE ( 'NONE', #94, #221, #278, .T. ) ;
#146 = ORIENTED_EDGE ( 'NONE', *, *, #145, .T. ) ;
#147 = CARTESIAN_POINT ( 'NONE',  ( 0.000000000000000000, 0.000000000000000000, 40.00000000000000000 ) ) ;
#148 = CYLINDRICAL_SURFACE ( 'NONE', #128, 9.999999999999998224 ) ;
#149 = CIRCLE ( 'NONE', #415, 8.750000000000000000 ) ;
#150 = VECTOR ( 'NONE', #312, 1000.000000000000000 ) ;
#151 = ORIENTED_EDGE ( 'NONE', *, *, #229, .T. ) ;
#152 = DIRECTION ( 'NONE',  ( 1.119176436114070564E-16, 1.000000000000000000, 0.000000000000000000 ) ) ;
#153 =( LENGTH_UNIT ( ) NAMED_UNIT ( * ) SI_UNIT ( .MILLI., .METRE. ) );
#154 = ORIENTED_EDGE ( 'NONE', *, *, #308, .F. ) ;
#155 = ORIENTED_EDGE ( 'NONE', *, *, #132, .T. ) ;
#156 = AXIS2_PLACEMENT_3D ( 'NONE', #300, #369, #374 ) ;
#157 = EDGE_CURVE ( 'NONE', #355, #252, #406, .T. ) ;
#158 = EDGE_LOOP ( 'NONE', ( #92, #228 ) ) ;
#159 = ORIENTED_EDGE ( 'NONE', *, *, #308, .T. ) ;
#160 = PLANE ( 'NONE',  #222 ) ;
#161 = EDGE_LOOP ( 'NONE', ( #119, #283, #190, #87 ) ) ;
#162 = FACE_BOUND ( 'NONE', #321, .T. ) ;
#163 = LINE ( 'NONE', #168, #316 ) ;
#164 = LINE ( 'NONE', #197, #14 ) ;
#165 = SURFACE_STYLE_FILL_AREA ( #241 ) ;
#166 = DIRECTION ( 'NONE',  ( -1.000000000000000000, -1.119176436114070564E-16, 0.000000000000000000 ) ) ;
#167 = DIRECTION ( 'NONE',  ( 1.000000000000000000, 0.000000000000000000, 0.000000000000000000 ) ) ;
#168 = CARTESIAN_POINT ( 'NONE',  ( 7.999999999999994671, 18.00000000000006395, 40.00000000000000000 ) ) ;
#169 = DIRECTION ( 'NONE',  ( -0.000000000000000000, -0.000000000000000000, -1.000000000000000000 ) ) ;
#170 = EDGE_LOOP ( 'NONE', ( #58, #199, #62, #33 ) ) ;
#171 = CIRCLE ( 'NONE', #421, 8.750000000000000000 ) ;
#172 = VECTOR ( 'NONE', #183, 1000.000000000000000 ) ;
#173 = CARTESIAN_POINT ( 'NONE',  ( -5.204170427930421283E-15, 45.00000000000000711, 0.000000000000000000 ) ) ;
#174 = FACE_OUTER_BOUND ( 'NONE', #27, .T. ) ;
#175 = DIRECTION ( 'NONE',  ( 0.000000000000000000, -1.000000000000000000, 0.000000000000000000 ) ) ;
#176 = ORIENTED_EDGE ( 'NONE', *, *, #269, .F. ) ;
#177 = ADVANCED_FACE ( 'NONE', ( #53 ), #212, .F. ) ;
#178 = CIRCLE ( 'NONE', #108, 8.750000000000000000 ) ;
#179 = LINE ( 'NONE', #81, #84 ) ;
#180 = ORIENTED_EDGE ( 'NONE', *, *, #431, .F. ) ;
#181 = PLANE ( 'NONE',  #11 ) ;
#182 = ORIENTED_EDGE ( 'NONE', *, *, #431, .T. ) ;
#183 = DIRECTION ( 'NONE',  ( 1.000000000000000000, -1.119176436114070318E-16, -0.000000000000000000 ) ) ;
#184 = ORIENTED_EDGE ( 'NONE', *, *, #346, .F. ) ;
#185 = ADVANCED_FACE ( 'NONE', ( #55, #174 ), #181, .F. ) ;
#186 = CARTESIAN_POINT ( 'NONE',  ( 36.25000000000000711, 7.999999999999994671, 0.000000000000000000 ) ) ;
#187 = DIRECTION ( 'NONE',  ( -0.000000000000000000, -0.000000000000000000, -1.000000000000000000 ) ) ;
#188 = EDGE_LOOP ( 'NONE', ( #285, #36, #73, #146, #155, #298, #323 ) ) ;
#189 = DIRECTION ( 'NONE',  ( 1.000000000000000000, -1.119176436114070318E-16, 0.000000000000000000 ) ) ;
#190 = ORIENTED_EDGE ( 'NONE', *, *, #59, .F. ) ;
#191 = EDGE_CURVE ( 'NONE', #368, #118, #389, .T. ) ;
#192 = EDGE_LOOP ( 'NONE', ( #394, #424, #184, #288 ) ) ;
#193 = VECTOR ( 'NONE', #274, 1000.000000000000000 ) ;
#194 = FACE_OUTER_BOUND ( 'NONE', #30, .T. ) ;
#195 = CARTESIAN_POINT ( 'NONE',  ( 8.000000000000001776, 80.00000000000000000, 40.00000000000000000 ) ) ;
#196 = VERTEX_POINT ( 'NONE', #20 ) ;
#197 = CARTESIAN_POINT ( 'NONE',  ( 80.00000000000000000, 0.000000000000000000, -40.00000000000000000 ) ) ;
#198 =( NAMED_UNIT ( * ) PLANE_ANGLE_UNIT ( ) SI_UNIT ( $, .RADIAN. ) );
#199 = ORIENTED_EDGE ( 'NONE', *, *, #425, .F. ) ;
#200 = ADVANCED_FACE ( 'NONE', ( #211, #257 ), #287, .F. ) ;
#201 = AXIS2_PLACEMENT_3D ( 'NONE', #224, #187, #428 ) ;
#202 = CARTESIAN_POINT ( 'NONE',  ( 9.389626173925006416E-16, 80.00000000000000000, -40.00000000000000000 ) ) ;
#203 = CARTESIAN_POINT ( 'NONE',  ( 0.000000000000000000, 0.000000000000000000, -40.00000000000000000 ) ) ;
#204 = DIRECTION ( 'NONE',  ( 1.119176436114070564E-16, 1.000000000000000000, 0.000000000000000000 ) ) ;
#205 = VECTOR ( 'NONE', #19, 1000.000000000000000 ) ;
#206 = CARTESIAN_POINT ( 'NONE',  ( 45.00000000000000711, -3.469446951953614189E-15, 0.000000000000000000 ) ) ;
#207 = ADVANCED_FACE ( 'NONE', ( #258, #49 ), #220, .F. ) ;
#208 = CARTESIAN_POINT ( 'NONE',  ( 9.389626173925006416E-16, 80.00000000000000000, 40.00000000000000000 ) ) ;
#209 = STYLED_ITEM ( 'NONE', ( #403 ), #380 ) ;
#210 = CARTESIAN_POINT ( 'NONE',  ( 17.99999999999999645, 17.99999999999999289, 40.00000000000000000 ) ) ;
#211 = FACE_BOUND ( 'NONE', #158, .T. ) ;
#212 = PLANE ( 'NONE',  #225 ) ;
#213 = ORIENTED_EDGE ( 'NONE', *, *, #138, .F. ) ;
#214 = ADVANCED_FACE ( 'NONE', ( #16 ), #144, .F. ) ;
#215 = CARTESIAN_POINT ( 'NONE',  ( -4.224891046330609274E-15, 53.75000000000000711, 0.000000000000000000 ) ) ;
#216 = AXIS2_PLACEMENT_3D ( 'NONE', #173, #78, #204 ) ;
#217 = DIRECTION ( 'NONE',  ( -1.000000000000000000, -1.982541115402065356E-16, 0.000000000000000000 ) ) ;
#218 = ORIENTED_EDGE ( 'NONE', *, *, #265, .F. ) ;
#219 = EDGE_CURVE ( 'NONE', #252, #261, #318, .T. ) ;
#220 = PLANE ( 'NONE',  #79 ) ;
#221 = VERTEX_POINT ( 'NONE', #143 ) ;
#222 = AXIS2_PLACEMENT_3D ( 'NONE', #324, #96, #426 ) ;
#223 = ORIENTED_EDGE ( 'NONE', *, *, #313, .F. ) ;
#224 = CARTESIAN_POINT ( 'NONE',  ( 17.99999999999999645, 17.99999999999999289, -40.00000000000000000 ) ) ;
#225 = AXIS2_PLACEMENT_3D ( 'NONE', #348, #175, #384 ) ;
#226 = ORIENTED_EDGE ( 'NONE', *, *, #229, .F. ) ;
#227 = DIRECTION ( 'NONE',  ( 1.000000000000000000, -1.119176436114070318E-16, 0.000000000000000000 ) ) ;
#228 = ORIENTED_EDGE ( 'NONE', *, *, #391, .T. ) ;
#229 = EDGE_CURVE ( 'NONE', #400, #261, #13, .T. ) ;
#230 = PLANE ( 'NONE',  #22 ) ;
#231 = VECTOR ( 'NONE', #268, 1000.000000000000000 ) ;
#232 = ORIENTED_EDGE ( 'NONE', *, *, #157, .F. ) ;
#233 = PRODUCT_RELATED_PRODUCT_CATEGORY ( 'part', '', ( #93 ) ) ;
#234 = LINE ( 'NONE', #329, #231 ) ;
#235 = ORIENTED_EDGE ( 'NONE', *, *, #313, .T. ) ;
#236 = VERTEX_POINT ( 'NONE', #353 ) ;
#237 = CARTESIAN_POINT ( 'NONE',  ( -5.204170427930421283E-15, 45.00000000000000711, 0.000000000000000000 ) ) ;
#238 = FILL_AREA_STYLE_COLOUR ( '', #95 ) ;
#239 = VERTEX_POINT ( 'NONE', #322 ) ;
#240 = DIRECTION ( 'NONE',  ( 1.119176436114070564E-16, 1.000000000000000000, 0.000000000000000000 ) ) ;
#241 = FILL_AREA_STYLE ('',( #238 ) ) ;
#242 = CARTESIAN_POINT ( 'NONE',  ( 53.75000000000000711, -2.490167570353802180E-15, 1.071565949253934519E-15 ) ) ;
#243 = DIRECTION ( 'NONE',  ( -0.000000000000000000, -0.000000000000000000, -1.000000000000000000 ) ) ;
#244 = CARTESIAN_POINT ( 'NONE',  ( 80.00000000000000000, 8.000000000000000000, 40.00000000000000000 ) ) ;
#245 = ADVANCED_FACE ( 'NONE', ( #281 ), #148, .F. ) ;
#246 = FACE_OUTER_BOUND ( 'NONE', #192, .T. ) ;
#247 = CARTESIAN_POINT ( 'NONE',  ( 7.999999999999996447, 17.99999999999999289, -40.00000000000000000 ) ) ;
#248 = DIRECTION ( 'NONE',  ( 1.119176436114070318E-16, 1.000000000000000000, 0.000000000000000000 ) ) ;
#249 = AXIS2_PLACEMENT_3D ( 'NONE', #305, #6, #12 ) ;
#250 = CARTESIAN_POINT ( 'NONE',  ( 80.00000000000000000, 8.000000000000000000, -40.00000000000000000 ) ) ;
#251 = DIRECTION ( 'NONE',  ( -0.000000000000000000, -0.000000000000000000, -1.000000000000000000 ) ) ;
#252 = VERTEX_POINT ( 'NONE', #284 ) ;
#253 = CIRCLE ( 'NONE', #398, 8.750000000000000000 ) ;
#254 = UNCERTAINTY_MEASURE_WITH_UNIT (LENGTH_MEASURE( 1.000000000000000082E-05 ), #378, 'distance_accuracy_value', 'NONE');
#255 = CARTESIAN_POINT ( 'NONE',  ( 45.00000000000000711, 7.999999999999996447, 0.000000000000000000 ) ) ;
#256 = EDGE_LOOP ( 'NONE', ( #264, #67 ) ) ;
#257 = FACE_OUTER_BOUND ( 'NONE', #390, .T. ) ;
#258 = FACE_BOUND ( 'NONE', #256, .T. ) ;
#259 = VERTEX_POINT ( 'NONE', #423 ) ;
#260 = CIRCLE ( 'NONE', #69, 8.750000000000000000 ) ;
#261 = VERTEX_POINT ( 'NONE', #112 ) ;
#262 = VECTOR ( 'NONE', #8, 1000.000000000000000 ) ;
#263 = AXIS2_PLACEMENT_3D ( 'NONE', #255, #388, #217 ) ;
#264 = ORIENTED_EDGE ( 'NONE', *, *, #117, .T. ) ;
#265 = EDGE_CURVE ( 'NONE', #196, #362, #311, .T. ) ;
#266 = ORIENTED_EDGE ( 'NONE', *, *, #138, .T. ) ;
#267 = ORIENTED_EDGE ( 'NONE', *, *, #265, .T. ) ;
#268 = DIRECTION ( 'NONE',  ( 0.000000000000000000, 1.000000000000000000, 0.000000000000000000 ) ) ;
#269 = EDGE_CURVE ( 'NONE', #221, #236, #179, .T. ) ;
#270 = EDGE_LOOP ( 'NONE', ( #111, #90, #82, #328 ) ) ;
#271 = CARTESIAN_POINT ( 'NONE',  ( 80.00000000000000000, 0.000000000000000000, -40.00000000000000000 ) ) ;
#272 = DIRECTION ( 'NONE',  ( 1.982541115402065356E-16, 1.000000000000000000, 0.000000000000000000 ) ) ;
#273 =( NAMED_UNIT ( * ) SI_UNIT ( $, .STERADIAN. ) SOLID_ANGLE_UNIT ( ) );
#274 = DIRECTION ( 'NONE',  ( -1.000000000000000000, -1.119176436114070318E-16, 0.000000000000000000 ) ) ;
#275 = AXIS2_PLACEMENT_3D ( 'NONE', #292, #227, #152 ) ;
#276 = PRODUCT_DEFINITION_FORMATION_WITH_SPECIFIED_SOURCE ( 'ANY', '', #93, .NOT_KNOWN. ) ;
#277 = CARTESIAN_POINT ( 'NONE',  ( 80.00000000000000000, 8.000000000000000000, 40.00000000000000000 ) ) ;
#278 = LINE ( 'NONE', #334, #193 ) ;
#279 = CARTESIAN_POINT ( 'NONE',  ( 7.999999999999994671, 18.00000000000006395, -40.00000000000000000 ) ) ;
#280 = CARTESIAN_POINT ( 'NONE',  ( 0.000000000000000000, 0.000000000000000000, -40.00000000000000000 ) ) ;
#281 = FACE_OUTER_BOUND ( 'NONE', #270, .T. ) ;
#282 = CARTESIAN_POINT ( 'NONE',  ( 17.99999999999999645, 17.99999999999999289, 40.00000000000000000 ) ) ;
#283 = ORIENTED_EDGE ( 'NONE', *, *, #325, .F. ) ;
#284 = CARTESIAN_POINT ( 'NONE',  ( 9.389626173925006416E-16, 80.00000000000000000, 40.00000000000000000 ) ) ;
#285 = ORIENTED_EDGE ( 'NONE', *, *, #15, .T. ) ;
#286 = EDGE_CURVE ( 'NONE', #259, #295, #114, .T. ) ;
#287 = PLANE ( 'NONE',  #110 ) ;
#288 = ORIENTED_EDGE ( 'NONE', *, *, #351, .T. ) ;
#289 = VECTOR ( 'NONE', #142, 1000.000000000000000 ) ;
#290 = DIRECTION ( 'NONE',  ( -0.000000000000000000, -0.000000000000000000, -1.000000000000000000 ) ) ;
#291 = VERTEX_POINT ( 'NONE', #385 ) ;
#292 = CARTESIAN_POINT ( 'NONE',  ( -5.204170427930421283E-15, 45.00000000000000711, 0.000000000000000000 ) ) ;
#293 = ORIENTED_EDGE ( 'NONE', *, *, #422, .F. ) ;
#294 = VECTOR ( 'NONE', #3, 1000.000000000000000 ) ;
#295 = VERTEX_POINT ( 'NONE', #52 ) ;
#296 = CARTESIAN_POINT ( 'NONE',  ( 17.99999999999999645, 17.99999999999999289, 40.00000000000000000 ) ) ;
#297 = AXIS2_PLACEMENT_3D ( 'NONE', #210, #42, #343 ) ;
#298 = ORIENTED_EDGE ( 'NONE', *, *, #59, .T. ) ;
#299 = ORIENTED_EDGE ( 'NONE', *, *, #325, .T. ) ;
#300 = CARTESIAN_POINT ( 'NONE',  ( 17.99999999999999645, 17.99999999999999289, -40.00000000000000000 ) ) ;
#301 = CARTESIAN_POINT ( 'NONE',  ( 80.00000000000000000, 0.000000000000000000, 40.00000000000000000 ) ) ;
#302 = ORIENTED_EDGE ( 'NONE', *, *, #51, .F. ) ;
#303 = DIRECTION ( 'NONE',  ( 1.000000000000000000, -1.119176436114070318E-16, 0.000000000000000000 ) ) ;
#304 = CARTESIAN_POINT ( 'NONE',  ( 0.000000000000000000, 0.000000000000000000, 40.00000000000000000 ) ) ;
#305 = CARTESIAN_POINT ( 'NONE',  ( 45.00000000000000711, 7.999999999999996447, 0.000000000000000000 ) ) ;
#306 = LINE ( 'NONE', #277, #28 ) ;
#307 = LINE ( 'NONE', #408, #120 ) ;
#308 = EDGE_CURVE ( 'NONE', #330, #124, #18, .T. ) ;
#309 = DIRECTION ( 'NONE',  ( 1.119176436114070318E-16, 1.000000000000000000, 0.000000000000000000 ) ) ;
#310 = DIRECTION ( 'NONE',  ( -1.119176436114070318E-16, 1.000000000000000000, 0.000000000000000000 ) ) ;
#311 = LINE ( 'NONE', #83, #205 ) ;
#312 = DIRECTION ( 'NONE',  ( -0.000000000000000000, -0.000000000000000000, -1.000000000000000000 ) ) ;
#313 = EDGE_CURVE ( 'NONE', #315, #236, #352, .T. ) ;
#314 = DIRECTION ( 'NONE',  ( 0.000000000000000000, -0.000000000000000000, 1.000000000000000000 ) ) ;
#315 = VERTEX_POINT ( 'NONE', #336 ) ;
#316 = VECTOR ( 'NONE', #248, 1000.000000000000000 ) ;
#317 = ADVANCED_FACE ( 'NONE', ( #435 ), #339, .F. ) ;
#318 = LINE ( 'NONE', #47, #150 ) ;
#319 = VERTEX_POINT ( 'NONE', #129 ) ;
#320 = CARTESIAN_POINT ( 'NONE',  ( 80.00000000000000000, 8.000000000000000000, 40.00000000000000000 ) ) ;
#321 = EDGE_LOOP ( 'NONE', ( #386, #360 ) ) ;
#322 = CARTESIAN_POINT ( 'NONE',  ( 36.25000000000000711, -4.448726333553426198E-15, 0.000000000000000000 ) ) ;
#323 = ORIENTED_EDGE ( 'NONE', *, *, #157, .T. ) ;
#324 = CARTESIAN_POINT ( 'NONE',  ( 7.999999999999994671, 18.00000000000006395, 40.00000000000000000 ) ) ;
#325 = EDGE_CURVE ( 'NONE', #355, #400, #125, .T. ) ;
#326 = ORIENTED_EDGE ( 'NONE', *, *, #37, .F. ) ;
#327 = VERTEX_POINT ( 'NONE', #271 ) ;
#328 = ORIENTED_EDGE ( 'NONE', *, *, #269, .T. ) ;
#329 = CARTESIAN_POINT ( 'NONE',  ( 80.00000000000000000, 0.000000000000000000, 40.00000000000000000 ) ) ;
#330 = VERTEX_POINT ( 'NONE', #186 ) ;
#331 = ADVANCED_FACE ( 'NONE', ( #162, #375 ), #160, .F. ) ;
#332 =( NAMED_UNIT ( * ) PLANE_ANGLE_UNIT ( ) SI_UNIT ( $, .RADIAN. ) );
#333 = MECHANICAL_DESIGN_GEOMETRIC_PRESENTATION_REPRESENTATION (  '', ( #209 ), #413 ) ;
#334 = CARTESIAN_POINT ( 'NONE',  ( 80.00000000000000000, 8.000000000000000000, 40.00000000000000000 ) ) ;
#335 = APPLICATION_PROTOCOL_DEFINITION ( 'draft international standard', 'automotive_design', 1998, #433 ) ;
#336 = CARTESIAN_POINT ( 'NONE',  ( 80.00000000000000000, 8.000000000000000000, -40.00000000000000000 ) ) ;
#337 = LINE ( 'NONE', #280, #350 ) ;
#338 = SHAPE_DEFINITION_REPRESENTATION ( #359, #1 ) ;
#339 = CYLINDRICAL_SURFACE ( 'NONE', #365, 8.750000000000000000 ) ;
#340 = LINE ( 'NONE', #242, #71 ) ;
#341 = DIRECTION ( 'NONE',  ( 0.000000000000000000, 1.000000000000000000, 0.000000000000000000 ) ) ;
#342 = CARTESIAN_POINT ( 'NONE',  ( 45.00000000000000711, -3.469446951953614189E-15, 0.000000000000000000 ) ) ;
#343 = DIRECTION ( 'NONE',  ( -1.000000000000000000, 0.000000000000000000, 0.000000000000000000 ) ) ;
#344 = VECTOR ( 'NONE', #102, 1000.000000000000000 ) ;
#345 = DIRECTION ( 'NONE',  ( -1.119176436114070318E-16, 1.000000000000000000, -0.000000000000000000 ) ) ;
#346 = EDGE_CURVE ( 'NONE', #291, #94, #234, .T. ) ;
#347 = DIRECTION ( 'NONE',  ( 1.119176436114070318E-16, -1.000000000000000000, 0.000000000000000000 ) ) ;
#348 = CARTESIAN_POINT ( 'NONE',  ( 8.000000000000001776, 80.00000000000000000, 40.00000000000000000 ) ) ;
#349 = EDGE_LOOP ( 'NONE', ( #326, #429, #24, #159 ) ) ;
#350 = VECTOR ( 'NONE', #412, 1000.000000000000000 ) ;
#351 = EDGE_CURVE ( 'NONE', #291, #327, #68, .T. ) ;
#352 = LINE ( 'NONE', #250, #72 ) ;
#353 = CARTESIAN_POINT ( 'NONE',  ( 18.00000000000006395, 7.999999999999992895, -40.00000000000000000 ) ) ;
#354 = PRESENTATION_LAYER_ASSIGNMENT (  '', '', ( #209 ) ) ;
#355 = VERTEX_POINT ( 'NONE', #401 ) ;
#356 = VECTOR ( 'NONE', #309, 1000.000000000000000 ) ;
#357 = ORIENTED_EDGE ( 'NONE', *, *, #5, .F. ) ;
#358 = PRODUCT_DEFINITION ( 'UNKNOWN', '', #276, #405 ) ;
#359 = PRODUCT_DEFINITION_SHAPE ( 'NONE', 'NONE',  #358 ) ;
#360 = ORIENTED_EDGE ( 'NONE', *, *, #43, .F. ) ;
#361 = DIRECTION ( 'NONE',  ( -1.000000000000000000, 0.000000000000000000, 0.000000000000000000 ) ) ;
#362 = VERTEX_POINT ( 'NONE', #203 ) ;
#363 = CARTESIAN_POINT ( 'NONE',  ( 8.000000000000001776, 80.00000000000000000, -40.00000000000000000 ) ) ;
#364 = DIRECTION ( 'NONE',  ( 1.119176436114070564E-16, 1.000000000000000000, 0.000000000000000000 ) ) ;
#365 = AXIS2_PLACEMENT_3D ( 'NONE', #370, #101, #364 ) ;
#366 = ORIENTED_EDGE ( 'NONE', *, *, #5, .T. ) ;
#367 = SURFACE_STYLE_USAGE ( .BOTH. , #4 ) ;
#368 = VERTEX_POINT ( 'NONE', #25 ) ;
#369 = DIRECTION ( 'NONE',  ( -0.000000000000000000, 0.000000000000000000, -1.000000000000000000 ) ) ;
#370 = CARTESIAN_POINT ( 'NONE',  ( -5.204170427930421283E-15, 45.00000000000000711, 0.000000000000000000 ) ) ;
#371 = AXIS2_PLACEMENT_3D ( 'NONE', #136, #104, #38 ) ;
#372 = CARTESIAN_POINT ( 'NONE',  ( 7.999999999999998224, 45.00000000000000711, 0.000000000000000000 ) ) ;
#373 = EDGE_CURVE ( 'NONE', #94, #315, #306, .T. ) ;
#374 = DIRECTION ( 'NONE',  ( -1.000000000000000000, 0.000000000000000000, 0.000000000000000000 ) ) ;
#375 = FACE_OUTER_BOUND ( 'NONE', #161, .T. ) ;
#376 = DIRECTION ( 'NONE',  ( -1.119176436114070318E-16, 1.000000000000000000, 0.000000000000000000 ) ) ;
#377 = CLOSED_SHELL ( 'NONE', ( #317, #214, #200, #207, #48, #185, #245, #331, #177, #407, #418, #122, #135 ) ) ;
#378 =( LENGTH_UNIT ( ) NAMED_UNIT ( * ) SI_UNIT ( .MILLI., .METRE. ) );
#379 = DIRECTION ( 'NONE',  ( 1.000000000000000000, -1.119176436114070318E-16, 0.000000000000000000 ) ) ;
#380 = MANIFOLD_SOLID_BREP ( 'Bohrung Vertikal', #377 ) ;
#381 = CARTESIAN_POINT ( 'NONE',  ( 45.00000000000000711, -3.469446951953614189E-15, 0.000000000000000000 ) ) ;
#382 = CYLINDRICAL_SURFACE ( 'NONE', #31, 8.750000000000000000 ) ;
#383 = VECTOR ( 'NONE', #109, 1000.000000000000000 ) ;
#384 = DIRECTION ( 'NONE',  ( 0.000000000000000000, -0.000000000000000000, -1.000000000000000000 ) ) ;
#385 = CARTESIAN_POINT ( 'NONE',  ( 80.00000000000000000, 0.000000000000000000, 40.00000000000000000 ) ) ;
#386 = ORIENTED_EDGE ( 'NONE', *, *, #410, .F. ) ;
#387 = EDGE_CURVE ( 'NONE', #196, #291, #98, .T. ) ;
#388 = DIRECTION ( 'NONE',  ( -1.119176436114070318E-16, 1.000000000000000000, 0.000000000000000000 ) ) ;
#389 = LINE ( 'NONE', #215, #172 ) ;
#390 = EDGE_LOOP ( 'NONE', ( #182, #218, #436, #430 ) ) ;
#391 = EDGE_CURVE ( 'NONE', #259, #368, #141, .T. ) ;
#392 = CARTESIAN_POINT ( 'NONE',  ( 45.00000000000000711, -3.469446951953614189E-15, 0.000000000000000000 ) ) ;
#393 = CIRCLE ( 'NONE', #201, 9.999999999999998224 ) ;
#394 = ORIENTED_EDGE ( 'NONE', *, *, #422, .T. ) ;
#395 = ORIENTED_EDGE ( 'NONE', *, *, #145, .F. ) ;
#396 = ORIENTED_EDGE ( 'NONE', *, *, #286, .T. ) ;
#397 = EDGE_CURVE ( 'NONE', #236, #66, #393, .T. ) ;
#398 = AXIS2_PLACEMENT_3D ( 'NONE', #123, #189, #63 ) ;
#399 = ORIENTED_EDGE ( 'NONE', *, *, #219, .F. ) ;
#400 = VERTEX_POINT ( 'NONE', #363 ) ;
#401 = CARTESIAN_POINT ( 'NONE',  ( 8.000000000000001776, 80.00000000000000000, 40.00000000000000000 ) ) ;
#402 = EDGE_LOOP ( 'NONE', ( #97, #396, #121, #89 ) ) ;
#403 = PRESENTATION_STYLE_ASSIGNMENT (( #367 ) ) ;
#404 = DIRECTION ( 'NONE',  ( -1.119176436114070318E-16, 1.000000000000000000, -0.000000000000000000 ) ) ;
#405 = PRODUCT_DEFINITION_CONTEXT ( 'detailed design', #433, 'design' ) ;
#406 = LINE ( 'NONE', #39, #344 ) ;
#407 = ADVANCED_FACE ( 'NONE', ( #432 ), #230, .F. ) ;
#408 = CARTESIAN_POINT ( 'NONE',  ( 7.999999999999996447, 17.99999999999999289, 40.00000000000000000 ) ) ;
#409 = VECTOR ( 'NONE', #2, 1000.000000000000000 ) ;
#410 = EDGE_CURVE ( 'NONE', #118, #295, #253, .T. ) ;
#411 = LINE ( 'NONE', #44, #409 ) ;
#412 = DIRECTION ( 'NONE',  ( 1.000000000000000000, 0.000000000000000000, 0.000000000000000000 ) ) ;
#413 =( GEOMETRIC_REPRESENTATION_CONTEXT ( 3 ) GLOBAL_UNCERTAINTY_ASSIGNED_CONTEXT ( ( #140 ) ) GLOBAL_UNIT_ASSIGNED_CONTEXT ( ( #153, #198, #273 ) ) REPRESENTATION_CONTEXT ( 'NONE', 'WORKASPACE' ) );
#414 = DIRECTION ( 'NONE',  ( -1.000000000000000000, -1.119176436114070564E-16, 0.000000000000000000 ) ) ;
#415 = AXIS2_PLACEMENT_3D ( 'NONE', #372, #379, #272 ) ;
#416 = ORIENTED_EDGE ( 'NONE', *, *, #65, .F. ) ;
#417 = DIRECTION ( 'NONE',  ( -1.000000000000000000, 0.000000000000000000, 0.000000000000000000 ) ) ;
#418 = ADVANCED_FACE ( 'NONE', ( #194 ), #34, .T. ) ;
#419 = CARTESIAN_POINT ( 'NONE',  ( 8.000000000000001776, 80.00000000000000000, -40.00000000000000000 ) ) ;
#420 = DIRECTION ( 'NONE',  ( 1.000000000000000000, -1.173703271740625710E-17, 0.000000000000000000 ) ) ;
#421 = AXIS2_PLACEMENT_3D ( 'NONE', #381, #376, #103 ) ;
#422 = EDGE_CURVE ( 'NONE', #327, #315, #164, .T. ) ;
#423 = CARTESIAN_POINT ( 'NONE',  ( -6.183449809530233292E-15, 36.25000000000000711, 1.071565949253934913E-15 ) ) ;
#424 = ORIENTED_EDGE ( 'NONE', *, *, #373, .F. ) ;
#425 = EDGE_CURVE ( 'NONE', #368, #259, #260, .T. ) ;
#426 = DIRECTION ( 'NONE',  ( -1.119176436114070318E-16, -1.000000000000000000, 0.000000000000000000 ) ) ;
#427 = ORIENTED_EDGE ( 'NONE', *, *, #37, .T. ) ;
#428 = DIRECTION ( 'NONE',  ( -1.000000000000000000, 0.000000000000000000, 0.000000000000000000 ) ) ;
#429 = ORIENTED_EDGE ( 'NONE', *, *, #117, .F. ) ;
#430 = ORIENTED_EDGE ( 'NONE', *, *, #219, .T. ) ;
#431 = EDGE_CURVE ( 'NONE', #261, #362, #7, .T. ) ;
#432 = FACE_OUTER_BOUND ( 'NONE', #188, .T. ) ;
#433 = APPLICATION_CONTEXT ( 'automotive_design' ) ;
#434 = ORIENTED_EDGE ( 'NONE', *, *, #351, .F. ) ;
#435 = FACE_OUTER_BOUND ( 'NONE', #402, .T. ) ;
#436 = ORIENTED_EDGE ( 'NONE', *, *, #15, .F. ) ;
ENDSEC;
END-ISO-10303-21;
